<?xml version="1.0" encoding="UTF-8" standalone="no"?>
<!-- Created with Inkscape (http://www.inkscape.org/) -->

<svg
   xmlns:dc="http://purl.org/dc/elements/1.1/"
   xmlns:cc="http://creativecommons.org/ns#"
   xmlns:rdf="http://www.w3.org/1999/02/22-rdf-syntax-ns#"
   xmlns:svg="http://www.w3.org/2000/svg"
   xmlns="http://www.w3.org/2000/svg"
   xmlns:sodipodi="http://sodipodi.sourceforge.net/DTD/sodipodi-0.dtd"
   xmlns:inkscape="http://www.inkscape.org/namespaces/inkscape"
   version="1.1"
   id="svg10"
   width="1940"
   height="316"
   viewBox="0 0 1940 316"
   sodipodi:docname="logo.svg"
   inkscape:version="0.92.1 r15371">
  <metadata
     id="metadata16">
    <rdf:RDF>
      <cc:Work
         rdf:about="">
        <dc:format>image/svg+xml</dc:format>
        <dc:type
           rdf:resource="http://purl.org/dc/dcmitype/StillImage" />
        <dc:title></dc:title>
      </cc:Work>
    </rdf:RDF>
  </metadata>
  <defs
     id="defs14" />
  <sodipodi:namedview
     pagecolor="#ffffff"
     bordercolor="#666666"
     borderopacity="1"
     objecttolerance="10"
     gridtolerance="10"
     guidetolerance="10"
     inkscape:pageopacity="0"
     inkscape:pageshadow="2"
     inkscape:window-width="2560"
     inkscape:window-height="1377"
     id="namedview12"
     showgrid="false"
     inkscape:zoom="1.2396907"
     inkscape:cx="970"
     inkscape:cy="158"
     inkscape:window-x="2552"
     inkscape:window-y="-8"
     inkscape:window-maximized="1"
     inkscape:current-layer="svg10" />
  <g
     id="g20"
     transform="translate(-1.6133056,-1.193348)">
    <path
       style="fill:#cdcdcd;stroke-width:1.33333337"
       d="M 781.33333,314.52628 C 765.74787,313.32996 747.95025,308.69913 736.26236,302.79911 702.03644,285.52192 685.26156,253.70411 683.1194,202 c -2.28885,-55.24476 20.64532,-100.10443 61.33129,-119.965123 12.77958,-6.2383 22.86454,-8.729481 39.02284,-9.6394 51.0657,-2.87565 89.22742,22.47252 102.42178,68.031643 4.24876,14.67067 6.54132,37.73844 5.35738,53.90621 l -0.90314,12.33334 h -81.84144 -81.84144 l 0.0197,7 c 0.0479,16.9896 7.29396,35.00854 18.63468,46.33888 C 759.94673,274.61781 776.14011,280 805.47833,280 c 19.98644,0 43.4711,-2.58612 60.96028,-6.71291 6.1079,-1.44124 11.3579,-2.62042 11.66667,-2.62042 0.30876,0 0.56139,7.7519 0.56139,17.22646 v 17.22646 l -9,2.02732 c -15.68004,3.53202 -32.60951,6.11248 -45,6.85906 -25.05544,1.5097 -29.7149,1.56564 -43.33334,0.52031 z M 847.98029,167 c -0.0107,-4.21667 -0.90656,-11.42816 -1.99048,-16.02555 -7.10045,-30.11597 -31.15516,-47.44596 -62.65648,-45.14025 -20.7667,1.52 -38.41133,14.19137 -48.06377,34.51665 -4.31575,9.08772 -8.52681,24.45804 -8.57975,31.31582 l -0.0231,3 H 787.33333 848 L 847.98027,167 Z m 950.68641,147.43051 c -18.8224,-0.95919 -38.8454,-3.54599 -56.3334,-7.27784 L 1732,304.94759 v -20.61644 c 0,-19.10466 0.1711,-20.54738 2.3333,-19.67452 6.9482,2.80485 34.7958,8.97196 48.8468,10.81754 20.9422,2.75074 62.7738,1.93946 74.7472,-1.44965 24.744,-7.00375 35.3616,-18.73717 36.495,-40.33021 0.5182,-9.87414 0.2136,-11.7303 -3.0058,-18.31038 -7.184,-14.6834 -19.7008,-22.5956 -65.6053,-41.4706 -15.2961,-6.28948 -33.5112,-14.41782 -40.4779,-18.06298 -33.3046,-17.42602 -49.3092,-39.8864 -49.2978,-69.183683 0.013,-27.06415 12.2548,-49.790858 34.9562,-64.882727 C 1800.7704,1.9870636 1842.6184,-3.1727283 1898,6.1240277 c 6.6,1.107925 14.25,2.6063872 17,3.329916 l 5,1.3155073 V 29.384725 C 1920,40.406073 1919.4772,48 1918.7183,48 c -0.705,0 -6.255,-1.156305 -12.3334,-2.569569 -29.1405,-6.775366 -63.8209,-8.731802 -84.6009,-4.772631 -21.1453,4.02876 -35.6185,14.816115 -39.9723,29.792672 -5.591,19.232327 3.399,36.239848 26.1927,49.552088 4.9652,2.89986 20.8727,10.10253 35.3497,16.00592 55.0628,22.45323 71.2218,32.7052 85.3386,54.14276 7.378,11.20408 10.3657,21.82985 10.4548,37.18209 0.1186,20.47954 -4.1706,34.26436 -15.2859,49.12488 -21.1875,28.32644 -63.3763,41.12252 -125.1949,37.9723 z M 54.404896,311.94593 c -6.06052,-3.20077 -11.004267,-9.55097 -12.933191,-16.6126 -0.95296,-3.48869 -1.459405,-26.20076 -1.464269,-65.66666 L 40,169.33333 l -9.666667,-0.008 c -12.96369,-0.009 -18.627462,-1.7897 -23.5569783,-7.40412 -3.5280682,-4.01824 -4.109688,-5.72132 -4.109688,-12.03382 0,-4.04423 0.8889756,-9.07224 1.9755014,-11.17335 C 7.1446132,133.87484 154.6432,7.0975053 160.72961,4.5544369 c 6.87018,-2.870541 18.98063,-2.421553 25.24499,0.9359435 4.30525,2.3074832 18.98439,14.2694646 36.21709,29.5132106 2.81424,2.489421 2.94803,2.480708 8.66667,-0.56445 4.79672,-2.55424 7.78215,-3.08396 17.14164,-3.04154 14.08569,0.06384 19.86156,1.983458 25.82332,8.582402 6.11372,6.767158 7.4936,12.302925 7.50257,30.09849 0.005,9.796704 0.56678,15.437592 1.67411,16.808434 0.91667,1.1348 13.99764,12.599618 29.06883,25.477373 15.0712,12.87776 28.1212,24.99219 29,26.92097 0.87881,1.92878 1.59784,6.75776 1.59784,10.73108 0,6.16845 -0.60059,7.90822 -4.1097,11.90486 -4.9295,5.61442 -10.59328,7.39471 -23.55697,7.40468 l -9.66667,0.007 -0.008,60.33334 c -0.005,39.4659 -0.5113,62.17797 -1.46426,65.66666 -1.96818,7.20531 -6.93627,13.47372 -13.21908,16.67898 -5.07666,2.5899 -7.94794,2.65293 -118.2561,2.59542 -109.496794,-0.0571 -113.208151,-0.1408 -117.981554,-2.6618 z M 284.11812,293.51896 c 2.43555,-3.00816 2.54855,-6.19693 2.54855,-71.92132 0,-53.56557 0.36854,-69.00761 1.66666,-69.83187 0.91667,-0.58205 8.98126,-1.06746 17.92131,-1.07869 8.94005,-0.0107 16.56931,-0.52955 16.95389,-1.15183 1.04652,-1.69328 -2.26953,-4.84414 -31.82136,-30.23614 C 276.48499,106.49461 263.92652,95.065032 263.47948,93.900049 263.03243,92.735067 262.66667,83.797443 262.66667,74.038661 262.66667,51.602523 261.77796,50 249.33569,50 c -7.36792,0 -8.57145,0.393189 -11.45113,3.741019 -1.79369,2.085282 -3.21789,5.443641 -3.21789,7.587977 0,8.457305 -2.65067,6.943233 -32.23164,-18.410865 C 188.74096,31.180832 176.32095,21.191715 174.835,20.720093 c -1.48595,-0.471621 -4.38171,0.03527 -6.43503,1.126418 -4.40561,2.341178 -144.569498,122.807529 -146.140455,125.603019 -1.560703,2.77724 0.409188,3.14222 19.073818,3.53398 L 58,151.33333 l 0.666667,70 c 0.366666,38.5 1.178062,70.79204 1.803102,71.76011 0.62504,0.96805 2.42504,2.28553 4,2.92773 1.57496,0.64219 51.066721,1.05015 109.981681,0.90656 l 107.11811,-0.26106 z M 162.82865,252.38679 c -8.97884,-4.4233 -12.43686,-17.54664 -6.98108,-26.49351 6.87547,-11.27497 26.47782,-11.23239 33.46475,0.0727 3.43201,5.5531 3.51051,14.6683 0.17344,20.14072 -4.81467,7.89549 -17.37253,10.85396 -26.65711,6.28006 z m -26.84133,-45.73527 c -3.07688,-3.675 -5.28709,-7.48247 -4.91158,-8.46103 1.01183,-2.6368 12.33401,-9.77805 20.12323,-12.69237 20.03147,-7.49473 44.17954,-3.32391 60.80103,10.50148 l 4.66667,3.88164 -6.96164,7.00515 -6.96164,7.00514 -3.74594,-2.76948 c -11.17068,-8.25884 -24.85002,-11.56834 -35.69076,-8.63485 -2.94798,0.79773 -8.87068,3.56445 -13.16153,6.14828 -4.29087,2.58381 -7.97301,4.69785 -8.18255,4.69785 -0.20953,0 -2.89841,-3.00681 -5.97529,-6.68181 z m -22.54164,-26.31819 c -2.98565,-3.48333 -5.43234,-6.73234 -5.43707,-7.22001 -0.0228,-2.34843 13.67265,-12.48095 23.25302,-17.20367 14.78173,-7.28674 27.04008,-9.67188 45.40504,-8.8345 16.65681,0.75948 28.79432,3.97182 41.33333,10.93941 9.13443,5.07575 19.33333,13.41689 19.33333,15.81173 0,0.89016 -2.6955,4.26392 -5.99,7.49723 l -5.99,5.87875 -3.67666,-2.9356 c -5.96844,-4.76544 -16.48392,-10.73138 -24.34334,-13.81115 -8.94733,-3.50608 -29.38704,-4.79716 -40.24857,-2.54232 -9.32525,1.93592 -24.49498,9.14641 -30.69473,14.58987 -2.60814,2.28998 -5.36618,4.1636 -6.12898,4.1636 -0.76279,0 -3.82971,-2.85 -6.81537,-6.33334 z M 240,155.29201 c -12.7778,-9.08734 -29.08129,-17.1398 -42.28621,-20.88553 -7.89988,-2.2409 -13.8853,-2.93875 -25.04712,-2.92027 -22.89211,0.0379 -40.54193,5.94228 -63.55006,21.25942 -7.09486,4.72324 -13.423618,8.5877 -14.063902,8.5877 -2.312305,0 -12.692057,-11.75949 -11.739781,-13.30032 2.609565,-4.22236 22.343413,-18.1075 33.149173,-23.32444 19.48203,-9.40578 31.08285,-11.90832 55.5379,-11.98072 16.10091,-0.0477 22.87591,0.50056 30.66667,2.48154 20.3183,5.16637 35.88882,13.00392 51.42956,25.88749 9.61606,7.97192 9.6311,8.21675 1.00932,16.43837 L 250,162.40384 Z M 522,313.18867 C 462.30275,304.58612 425.36565,263.83717 416.51355,196.81616 413.59544,174.72257 414.63281,134.19563 418.589,115.73467 429.21408,66.154289 454.32416,31.588196 492.54397,13.929552 525.89204,-1.4782 574.44525,-2.1612665 614.185,12.218256 l 11.14833,4.03394 v 21.186971 21.18697 L 617.36988,54.5794 C 598.47129,44.975831 576.62932,40 553.37196,40 c -46.20377,0 -76.31212,25.223241 -89.38132,74.87911 -3.75669,14.27342 -5.23335,54.7551 -2.68268,73.54458 6.4568,47.56408 28.99991,76.827 66.02537,85.70668 13.1893,3.16315 40.0769,2.91879 56.66667,-0.51498 10.42535,-2.15786 26.29363,-7.40363 39,-12.89271 2.16345,-0.9346 2.33333,0.45152 2.33333,19.03887 v 20.04685 l -7.56173,2.82921 c -11.92088,4.46018 -25.33015,7.83414 -39.7716,10.00711 -14.28888,2.15 -42.92453,2.42816 -56,0.54395 z M 965.33333,193.33333 V 76 h 18.48095 18.48092 l 0.8408,7 c 0.4625,3.85 0.846,13.262311 0.8524,20.91625 l 0.012,13.91624 13,-12.68686 c 18.9062,-18.450847 30.8146,-25.827921 49.3411,-30.56621 25.9739,-6.643 54.1088,0.085 70.4809,16.854369 12.7388,13.047881 19.6851,32.564571 21.3194,59.900451 l 0.9166,15.33243 h -21.3375 -21.3375 L 1115.6599,153 c -0.9452,-17.86397 -4.4142,-27.45745 -12.9398,-35.78423 -12.1931,-11.9089 -31.3357,-12.32942 -50.1702,-1.10212 -9.0978,5.42327 -28.0359,23.03511 -38.4266,35.73564 l -7.4566,9.11423 v 74.85157 74.85158 H 986 965.33333 Z m 242.99437,-35 L 1208.6667,6 h 27.1751 27.1751 l 42.897,91.333333 c 23.5934,50.233337 49.1645,105.672617 56.8249,123.198397 l 13.9279,31.86507 0.3402,-123.56734 0.3403,-123.5673357 19.6597,0.3689378 L 1416.6667,6 l 0.3389,152.33333 0.3391,152.33334 h -27.7588 -27.7587 l -2.4115,-5 C 1337.2612,259.73299 1273.4514,121.64583 1262.5291,96 l -14.4803,-34 -0.024,124.33333 -0.024,124.33334 h -20.0057 -20.0056 z m 238.339,150.74183 c 0,-0.87533 22.6429,-69.57533 50.3177,-152.66667 L 1547.302,5.3333333 h 28.6933 28.6934 l 49.1997,150.3333367 c 27.0599,82.68333 49.4787,151.39781 49.8196,152.69885 0.5787,2.20817 -0.9184,2.34121 -22.5041,2 L 1658.08,310 l -10.1635,-32 -10.1633,-32 -63.3101,-0.34612 -63.3103,-0.34612 -10.5299,32.67945 -10.5297,32.67946 h -21.7033 c -15.9271,0 -21.7032,-0.42358 -21.7032,-1.59151 z m 178.2472,-103.40849 c -0.3172,-0.55 -11.5267,-35.8 -24.9098,-78.33334 -13.383,-42.53333 -24.717,-78.055273 -25.1866,-78.937646 -0.6199,-1.165027 -45.3259,136.894666 -50.4951,155.937646 -0.5952,2.19254 2.438,2.33334 50.2675,2.33334 27.9954,0 50.6413,-0.45 50.324,-1 z"
       id="path34"
       inkscape:connector-curvature="0" />
    <path
       style="fill:#afafaf;stroke-width:1.33333337"
       d="m 54.404896,311.94593 c -6.06052,-3.20077 -11.004267,-9.55097 -12.933191,-16.6126 -0.95296,-3.48869 -1.459405,-26.20076 -1.464269,-65.66666 L 40,169.33333 l -9.666667,-0.008 c -12.96369,-0.009 -18.627462,-1.7897 -23.5569783,-7.40412 -3.5280682,-4.01824 -4.109688,-5.72132 -4.109688,-12.03382 0,-4.04423 0.8889756,-9.07224 1.9755014,-11.17335 C 7.1446132,133.87484 154.6432,7.0975053 160.72961,4.5544369 c 6.87018,-2.870541 18.98063,-2.421553 25.24499,0.9359435 4.30525,2.3074832 18.98439,14.2694646 36.21709,29.5132106 2.81424,2.489421 2.94803,2.480708 8.66667,-0.56445 4.79672,-2.55424 7.78215,-3.08396 17.14164,-3.04154 14.08569,0.06384 19.86156,1.983458 25.82332,8.582402 6.11372,6.767158 7.4936,12.302925 7.50257,30.09849 0.005,9.796704 0.56678,15.437592 1.67411,16.808434 0.91667,1.1348 13.99764,12.599618 29.06883,25.477373 15.0712,12.87776 28.1212,24.99219 29,26.92097 0.87881,1.92878 1.59784,6.75776 1.59784,10.73108 0,6.16845 -0.60059,7.90822 -4.1097,11.90486 -4.9295,5.61442 -10.59328,7.39471 -23.55697,7.40468 l -9.66667,0.007 -0.008,60.33334 c -0.005,39.4659 -0.5113,62.17797 -1.46426,65.66666 -1.96818,7.20531 -6.93627,13.47372 -13.21908,16.67898 -5.07666,2.5899 -7.94794,2.65293 -118.2561,2.59542 -109.496794,-0.0571 -113.208151,-0.1408 -117.981554,-2.6618 z M 284.11812,293.51896 c 2.43555,-3.00816 2.54855,-6.19693 2.54855,-71.92132 0,-53.56557 0.36854,-69.00761 1.66666,-69.83187 0.91667,-0.58205 8.98126,-1.06746 17.92131,-1.07869 8.94005,-0.0107 16.56931,-0.52955 16.95389,-1.15183 1.04652,-1.69328 -2.26953,-4.84414 -31.82136,-30.23614 C 276.48499,106.49461 263.92652,95.065032 263.47948,93.900049 263.03243,92.735067 262.66667,83.797443 262.66667,74.038661 262.66667,51.602523 261.77796,50 249.33569,50 c -7.36792,0 -8.57145,0.393189 -11.45113,3.741019 -1.79369,2.085282 -3.21789,5.443641 -3.21789,7.587977 0,8.457305 -2.65067,6.943233 -32.23164,-18.410865 C 188.74096,31.180832 176.32095,21.191715 174.835,20.720093 c -1.48595,-0.471621 -4.38171,0.03527 -6.43503,1.126418 -4.40561,2.341178 -144.569498,122.807529 -146.140455,125.603019 -1.560703,2.77724 0.409188,3.14222 19.073818,3.53398 L 58,151.33333 l 0.666667,70 c 0.366666,38.5 1.178062,70.79204 1.803102,71.76011 0.62504,0.96805 2.42504,2.28553 4,2.92773 1.57496,0.64219 51.066721,1.05015 109.981681,0.90656 l 107.11811,-0.26106 z M 162.82865,252.38679 c -8.97884,-4.4233 -12.43686,-17.54664 -6.98108,-26.49351 6.87547,-11.27497 26.47782,-11.23239 33.46475,0.0727 3.43201,5.5531 3.51051,14.6683 0.17344,20.14072 -4.81467,7.89549 -17.37253,10.85396 -26.65711,6.28006 z m -26.84133,-45.73527 c -3.07688,-3.675 -5.28709,-7.48247 -4.91158,-8.46103 1.01183,-2.6368 12.33401,-9.77805 20.12323,-12.69237 20.03147,-7.49473 44.17954,-3.32391 60.80103,10.50148 l 4.66667,3.88164 -6.96164,7.00515 -6.96164,7.00514 -3.74594,-2.76948 c -11.17068,-8.25884 -24.85002,-11.56834 -35.69076,-8.63485 -2.94798,0.79773 -8.87068,3.56445 -13.16153,6.14828 -4.29087,2.58381 -7.97301,4.69785 -8.18255,4.69785 -0.20953,0 -2.89841,-3.00681 -5.97529,-6.68181 z m -22.54164,-26.31819 c -2.98565,-3.48333 -5.43234,-6.73234 -5.43707,-7.22001 -0.0228,-2.34843 13.67265,-12.48095 23.25302,-17.20367 14.78173,-7.28674 27.04008,-9.67188 45.40504,-8.8345 16.65681,0.75948 28.79432,3.97182 41.33333,10.93941 9.13443,5.07575 19.33333,13.41689 19.33333,15.81173 0,0.89016 -2.6955,4.26392 -5.99,7.49723 l -5.99,5.87875 -3.67666,-2.9356 c -5.96844,-4.76544 -16.48392,-10.73138 -24.34334,-13.81115 -8.94733,-3.50608 -29.38704,-4.79716 -40.24857,-2.54232 -9.32525,1.93592 -24.49498,9.14641 -30.69473,14.58987 -2.60814,2.28998 -5.36618,4.1636 -6.12898,4.1636 -0.76279,0 -3.82971,-2.85 -6.81537,-6.33334 z M 240,155.29201 c -12.7778,-9.08734 -29.08129,-17.1398 -42.28621,-20.88553 -7.89988,-2.2409 -13.8853,-2.93875 -25.04712,-2.92027 -22.89211,0.0379 -40.54193,5.94228 -63.55006,21.25942 -7.09486,4.72324 -13.423618,8.5877 -14.063902,8.5877 -2.312305,0 -12.692057,-11.75949 -11.739781,-13.30032 2.609565,-4.22236 22.343413,-18.1075 33.149173,-23.32444 19.48203,-9.40578 31.08285,-11.90832 55.5379,-11.98072 16.10091,-0.0477 22.87591,0.50056 30.66667,2.48154 20.3183,5.16637 35.88882,13.00392 51.42956,25.88749 9.61606,7.97192 9.6311,8.21675 1.00932,16.43837 L 250,162.40384 Z m 284.35864,157.95583 c -28.17995,-3.66557 -53.45575,-15.42687 -70.9998,-33.03753 -25.7814,-25.87928 -38.69217,-65.42898 -38.69217,-118.52607 0,-50.79078 13.77425,-91.571724 40.50894,-119.933447 22.20396,-23.555262 50.12738,-36.695995 82.54942,-38.8476795 27.99364,-1.8577941 55.76417,1.7323586 77.94164,10.0762295 l 9.66666,3.63691 v 20.501192 c 0,15.893343 -0.3746,20.340511 -1.66666,19.786294 -0.91667,-0.393195 -6.66031,-2.855754 -12.76363,-5.472355 -20.49477,-8.786456 -30.08573,-10.633732 -55.56971,-10.703056 -20.59492,-0.05603 -23.5789,0.238569 -32.6474,3.223113 -31.21165,10.272112 -51.52741,36.456751 -60.11808,77.485179 -2.33254,11.14006 -2.90928,18.39303 -2.9074,36.56338 0.005,45.89285 9.02463,74.98477 29.56892,95.36893 14.30859,14.19707 31.65812,21.39043 56.35136,23.36407 20.20939,1.61528 50.42399,-3.87209 69.86988,-12.68928 4.90503,-2.22405 9.13524,-4.04372 9.40048,-4.04372 0.26523,0 0.48224,8.93913 0.48224,19.86473 v 19.86472 l -9.66666,3.4681 c -27.26899,9.78324 -63.06812,13.72365 -91.30803,10.05029 z m 241.95313,-0.69255 c -40.10472,-7.2506 -67.77373,-32.84276 -77.66504,-71.83544 -10.74328,-42.35125 -5.91526,-86.89714 12.83974,-118.46649 10.9642,-18.45549 31.35686,-36.106113 50.26846,-43.509253 11.86836,-4.645994 29.86804,-7.156903 44.91174,-6.265071 46.86505,2.778291 78.06513,27.344773 90.08128,70.928654 2.39108,8.67276 3.03898,15.36447 3.5752,36.92564 l 0.65488,26.33334 h -82.15568 -82.15568 v 7.71986 c 0,30.97818 20.11742,55.91859 51.29925,63.59787 19.79903,4.87599 72.28403,1.25929 98.36741,-6.77841 2.13904,-0.65915 2.33334,0.71734 2.33334,16.53036 v 17.24937 L 865,307.85795 c -32.43461,6.81656 -75.60163,8.87121 -98.68823,4.69734 z M 848,166.28013 c 0,-35.40905 -25.05113,-60.9468 -59.78549,-60.9468 -22.54424,0 -40.4802,11.11418 -51.3656,31.82914 -4.96608,9.45046 -10.18224,26.72326 -10.18224,33.71748 v 3.78672 H 787.33333 848 Z m 928,146.25607 c -15.3713,-1.84904 -40.4503,-6.49975 -42.7652,-7.93047 C 1732.1239,303.91916 1731.3601,264 1732.4579,264 c 0.2518,0 4.0018,1.22323 8.3333,2.71829 4.3316,1.49507 15.3755,4.31971 24.5421,6.27699 15.524,3.31471 18.9979,3.56256 50.6667,3.61504 32.0704,0.0532 34.5675,-0.12187 44,-3.08259 12.8171,-4.0232 16.3436,-5.89382 23.4365,-12.4319 7.6343,-7.03704 11.3095,-16.7205 11.3787,-29.98134 0.12,-22.99978 -13.4291,-34.84729 -62.8152,-54.92616 -33.8507,-13.76265 -47.2312,-20.03258 -59.0052,-27.64916 -18.7277,-12.11493 -31.9243,-29.91148 -35.7333,-48.18906 -3.1155,-14.949646 0.023,-35.240041 7.813,-50.509549 17.3324,-33.974134 66.8326,-52.7928458 124.2588,-47.2400445 15.0074,1.4511188 42.3318,5.7117236 48.3334,7.5364265 2.0778,0.631769 2.3333,2.761116 2.3333,19.452908 v 18.743482 l -3.6667,-0.81141 c -32.786,-7.255334 -36.2893,-7.751643 -59.7521,-8.464982 -27.0143,-0.821317 -40.2121,0.944266 -53.2685,7.126211 -9.756,4.619213 -18.5438,14.241893 -21.2122,23.227581 -5.5126,18.562979 0.2607,32.956317 18.3678,45.792217 10.6773,7.56903 17.6368,10.99357 42.3912,20.85928 27.537,10.97474 51.577,22.588 61.6762,29.79464 16.4682,11.75141 28.9544,28.59362 32.7263,44.14313 2.2099,9.10956 1.9203,30.34833 -0.5409,39.67587 -3.5154,13.3232 -9.6376,23.55276 -20.5691,34.369 -15.4545,15.29152 -32.3851,23.03037 -61.2845,28.01284 -18.2044,3.13858 -54.903,3.36124 -78.8675,0.47849 z M 965.33333,193.33333 V 76 h 18.46702 18.46695 l 0.8664,12.204833 c 0.4765,6.712658 0.8663,16.228047 0.8663,21.145297 v 8.94047 l 12.3333,-12.30684 c 6.7834,-6.768764 16.8926,-15.274671 22.4651,-18.902016 32.232,-20.981168 73.8468,-19.327336 96.9875,3.854424 13.6285,13.652682 21.2471,35.353722 21.9056,62.397162 L 1158,166 h -20.6667 -20.6666 l -0.8843,-13.33333 c -1.4612,-22.03294 -6.6982,-33.56439 -18.3555,-40.41764 -5.3936,-3.17086 -7.472,-3.58236 -18.0936,-3.58236 -10.2982,0 -13.1076,0.51887 -19.8107,3.65884 -4.2959,2.01237 -10.5959,5.71344 -14,8.22459 -7.0185,5.17745 -25.3288,23.48023 -33.4392,33.42546 l -5.4167,6.64223 v 75.02444 75.02444 H 986 965.33333 Z M 1209.3333,157.97239 V 5.2781187 L 1236.0489,5.6390593 1262.7644,6 l 40.7837,86.666667 c 22.431,47.666663 48.1952,103.466663 57.2539,124.000003 L 1377.2721,254 l 0.031,-124.33333 0.031,-124.3333367 H 1396.6667 1416 V 158 310.66667 h -27.0832 -27.0831 l -44.396,-95 c -24.4177,-52.25 -49.8803,-108.10452 -56.5835,-124.121151 l -12.1875,-29.121148 -0.3402,124.121149 -0.3402,124.12115 h -19.3265 -19.3265 z M 1446.8021,309 c 0.075,-0.91667 22.7246,-69.46667 50.3334,-152.33333 L 1547.3333,6 h 28.6384 28.6386 l 49.6557,151.33333 c 27.3108,83.23334 49.6735,151.79751 49.6949,152.36482 0.021,0.56732 -10.2614,0.86732 -22.851,0.66666 L 1658.2197,310 l -1.0274,-3.33333 c -0.5651,-1.83334 -5.2902,-16.68334 -10.5002,-33 L 1637.2193,244 h -62.9929 -62.9929 l -10.6168,33.31111 -10.6167,33.31112 -21.6667,0.0223 c -16.5274,0.0169 -21.6345,-0.37309 -21.5312,-1.64444 z m 176.671,-108 c -10.0128,-32.74547 -48.1379,-152.574015 -48.7916,-153.353743 -0.7182,-0.856476 -50.7354,155.050993 -50.6951,158.020413 0.013,0.55 22.7849,1 50.6165,1 h 50.6028 z"
       id="path32"
       inkscape:connector-curvature="0" />
    <path
       style="fill:#8f8f8f;stroke-width:1.33333337"
       d="m 54.404896,311.94593 c -6.06052,-3.20077 -11.004267,-9.55097 -12.933191,-16.6126 -0.95296,-3.48869 -1.459405,-26.20076 -1.464269,-65.66666 L 40,169.33333 l -9.666667,-0.008 c -12.96369,-0.009 -18.627462,-1.7897 -23.5569783,-7.40412 -3.5280682,-4.01824 -4.109688,-5.72132 -4.109688,-12.03382 0,-4.04423 0.8889756,-9.07224 1.9755014,-11.17335 C 7.1446132,133.87484 154.6432,7.0975053 160.72961,4.5544369 c 6.87018,-2.870541 18.98063,-2.421553 25.24499,0.9359435 4.30525,2.3074832 18.98439,14.2694646 36.21709,29.5132106 2.81424,2.489421 2.94803,2.480708 8.66667,-0.56445 4.79672,-2.55424 7.78215,-3.08396 17.14164,-3.04154 14.08569,0.06384 19.86156,1.983458 25.82332,8.582402 6.11372,6.767158 7.4936,12.302925 7.50257,30.09849 0.005,9.796704 0.56678,15.437592 1.67411,16.808434 0.91667,1.1348 13.99764,12.599618 29.06883,25.477373 15.0712,12.87776 28.1212,24.99219 29,26.92097 0.87881,1.92878 1.59784,6.75776 1.59784,10.73108 0,6.16845 -0.60059,7.90822 -4.1097,11.90486 -4.9295,5.61442 -10.59328,7.39471 -23.55697,7.40468 l -9.66667,0.007 -0.008,60.33334 c -0.005,39.4659 -0.5113,62.17797 -1.46426,65.66666 -1.96818,7.20531 -6.93627,13.47372 -13.21908,16.67898 -5.07666,2.5899 -7.94794,2.65293 -118.2561,2.59542 -109.496794,-0.0571 -113.208151,-0.1408 -117.981554,-2.6618 z M 284.11812,293.51896 c 2.43555,-3.00816 2.54855,-6.19693 2.54855,-71.92132 0,-53.56557 0.36854,-69.00761 1.66666,-69.83187 0.91667,-0.58205 8.98126,-1.06746 17.92131,-1.07869 8.94005,-0.0107 16.56931,-0.52955 16.95389,-1.15183 1.04652,-1.69328 -2.26953,-4.84414 -31.82136,-30.23614 C 276.48499,106.49461 263.92652,95.065032 263.47948,93.900049 263.03243,92.735067 262.66667,83.797443 262.66667,74.038661 262.66667,51.602523 261.77796,50 249.33569,50 c -7.36792,0 -8.57145,0.393189 -11.45113,3.741019 -1.79369,2.085282 -3.21789,5.443641 -3.21789,7.587977 0,8.457305 -2.65067,6.943233 -32.23164,-18.410865 C 188.74096,31.180832 176.32095,21.191715 174.835,20.720093 c -1.48595,-0.471621 -4.38171,0.03527 -6.43503,1.126418 -4.40561,2.341178 -144.569498,122.807529 -146.140455,125.603019 -1.560703,2.77724 0.409188,3.14222 19.073818,3.53398 L 58,151.33333 l 0.666667,70 c 0.366666,38.5 1.178062,70.79204 1.803102,71.76011 0.62504,0.96805 2.42504,2.28553 4,2.92773 1.57496,0.64219 51.066721,1.05015 109.981681,0.90656 l 107.11811,-0.26106 z M 162.82865,252.38679 c -8.97884,-4.4233 -12.43686,-17.54664 -6.98108,-26.49351 6.87547,-11.27497 26.47782,-11.23239 33.46475,0.0727 3.43201,5.5531 3.51051,14.6683 0.17344,20.14072 -4.81467,7.89549 -17.37253,10.85396 -26.65711,6.28006 z m -26.84133,-45.73527 c -3.07688,-3.675 -5.28709,-7.48247 -4.91158,-8.46103 1.01183,-2.6368 12.33401,-9.77805 20.12323,-12.69237 20.03147,-7.49473 44.17954,-3.32391 60.80103,10.50148 l 4.66667,3.88164 -6.96164,7.00515 -6.96164,7.00514 -3.74594,-2.76948 c -11.17068,-8.25884 -24.85002,-11.56834 -35.69076,-8.63485 -2.94798,0.79773 -8.87068,3.56445 -13.16153,6.14828 -4.29087,2.58381 -7.97301,4.69785 -8.18255,4.69785 -0.20953,0 -2.89841,-3.00681 -5.97529,-6.68181 z m -22.54164,-26.31819 c -2.98565,-3.48333 -5.43234,-6.73234 -5.43707,-7.22001 -0.0228,-2.34843 13.67265,-12.48095 23.25302,-17.20367 14.78173,-7.28674 27.04008,-9.67188 45.40504,-8.8345 16.65681,0.75948 28.79432,3.97182 41.33333,10.93941 9.13443,5.07575 19.33333,13.41689 19.33333,15.81173 0,0.89016 -2.6955,4.26392 -5.99,7.49723 l -5.99,5.87875 -3.67666,-2.9356 c -5.96844,-4.76544 -16.48392,-10.73138 -24.34334,-13.81115 -8.94733,-3.50608 -29.38704,-4.79716 -40.24857,-2.54232 -9.32525,1.93592 -24.49498,9.14641 -30.69473,14.58987 -2.60814,2.28998 -5.36618,4.1636 -6.12898,4.1636 -0.76279,0 -3.82971,-2.85 -6.81537,-6.33334 z M 240,155.29201 c -12.7778,-9.08734 -29.08129,-17.1398 -42.28621,-20.88553 -7.89988,-2.2409 -13.8853,-2.93875 -25.04712,-2.92027 -22.89211,0.0379 -40.54193,5.94228 -63.55006,21.25942 -7.09486,4.72324 -13.423618,8.5877 -14.063902,8.5877 -2.312305,0 -12.692057,-11.75949 -11.739781,-13.30032 2.609565,-4.22236 22.343413,-18.1075 33.149173,-23.32444 19.48203,-9.40578 31.08285,-11.90832 55.5379,-11.98072 16.10091,-0.0477 22.87591,0.50056 30.66667,2.48154 20.3183,5.16637 35.88882,13.00392 51.42956,25.88749 9.61606,7.97192 9.6311,8.21675 1.00932,16.43837 L 250,162.40384 Z M 524.66667,313.241 c -59.53383,-8.18212 -95.14955,-44.38687 -106.80791,-108.57433 -3.38695,-18.6475 -3.41333,-65.26786 -0.0471,-83.24458 C 424.1114,87.779367 436.59729,61.418201 455.96638,40.866949 471.42516,24.464648 491.33217,12.788115 514.66667,6.4360697 524.69415,3.706418 528.99577,3.3499287 552,3.3421383 c 29.03744,-0.00984 37.02836,1.1138008 59,8.2962217 l 14.33333,4.685496 v 20.504739 c 0,11.277606 -0.31994,20.504738 -0.71098,20.504738 -0.39106,0 -3.54106,-1.425605 -7,-3.16801 C 598.81448,44.691089 577.55728,39.931173 554,39.918997 c -28.45767,-0.01471 -45.86663,6.598151 -63.36055,24.067736 -24.07493,24.041451 -35.1492,65.059707 -30.72038,113.785957 4.98264,54.81948 26.32157,85.89147 66.08093,96.22159 24.5166,6.36981 58.13143,2.82863 88.18496,-9.28993 l 11.14837,-4.49539 v 19.78556 19.78557 l -12.406,4.13307 c -6.82329,2.27319 -18.37329,5.32415 -25.66666,6.77992 -15.55642,3.10511 -48.71814,4.45496 -62.594,2.54792 z m 242.98657,-0.59773 c -24.14137,-4.56684 -39.63393,-12.31771 -54.33413,-27.18315 -20.59676,-20.82829 -29.79136,-48.89493 -29.7438,-90.79345 0.0457,-40.33112 11.00837,-69.58449 35.03125,-93.47981 9.53508,-9.484452 13.72991,-12.553819 24.13393,-17.658823 20.74036,-10.176802 39.33886,-13.217029 62.46635,-10.211144 35.20263,4.575292 59.88148,21.335703 73.64667,50.016437 8.75398,18.23955 10.77904,28.41139 11.48053,57.66667 l 0.61545,25.66667 H 808.26785 725.58621 L 726.26143,215 c 2.74494,33.87716 20.53858,55.51676 51.9895,63.22661 11.12471,2.7271 40.56251,2.99268 59.0824,0.53303 13.30458,-1.767 35.00212,-5.93076 39.04102,-7.49197 2.21281,-0.85535 2.34889,0.24958 2,16.24061 L 878,304.66667 l -9.33333,2.29429 c -18.91311,4.64917 -36.18819,6.58924 -63.33334,7.11261 -20.32572,0.39188 -29.986,0.0252 -37.68009,-1.4303 z M 847.651,163 c -0.84335,-14.57241 -3.50915,-23.15368 -10.39708,-33.46845 -6.0522,-9.06324 -14.52103,-15.88578 -25.3104,-20.39021 -6.16897,-2.57548 -9.71707,-3.04587 -23.30489,-3.08967 -15.60411,-0.0503 -16.27415,0.0692 -25.33334,4.52006 -11.97306,5.8824 -21.35794,15.45932 -27.65369,28.21954 -5.02083,10.17618 -8.93061,23.93188 -8.96523,31.54206 l -0.0197,4.33334 h 60.82976 60.82976 z m 941.0157,150.75732 c -10.666,-0.92211 -42.8344,-5.82743 -49.3334,-7.5228 l -6.6666,-1.73913 -0.369,-20.404 c -0.345,-19.08402 -0.2156,-20.34506 2,-19.49292 40.6211,15.62276 111.7394,17.98018 138.0158,4.57496 7.101,-3.62268 15.3992,-11.38303 18.3437,-17.15498 3.8944,-7.63349 5.7547,-20.46189 4.0916,-28.21598 -1.9893,-9.27647 -4.1392,-12.8763 -12.2867,-20.57384 -9.6922,-9.15692 -20.5904,-14.97168 -52.5861,-28.05743 -54.8769,-22.44392 -71.506,-33.28409 -84.8172,-55.29098 -19.4563,-32.166263 -6.0331,-78.564668 28.8443,-99.702529 C 1807.0051,0.11582655 1851.2561,-3.3086265 1913,9.4134109 l 7,1.4423161 v 18.727645 18.727645 l -3,-0.833869 c -24.4157,-6.786512 -60.7431,-10.622328 -82.614,-8.723244 -24.3321,2.112803 -40.1565,9.280724 -48.3353,21.894265 -7.3247,11.296436 -7.9792,27.551682 -1.5508,38.520819 7.9678,13.596242 22.3272,22.460322 63.6716,39.304982 41.6497,16.96903 57.3745,25.77762 70.1705,39.30748 14.9923,15.85204 20.3247,29.10131 20.3247,50.49987 0,24.15681 -6.1562,39.33793 -22.609,55.75387 -21.2026,21.15517 -53.4213,30.87904 -100.7244,30.39948 -11.7333,-0.11894 -23.7333,-0.42376 -26.6666,-0.67735 z M 965.33333,193.33333 V 76 h 18.49612 18.49615 l 0.9704,21.413373 0.9704,21.413377 7.5335,-8.32714 c 9.9035,-10.946875 25.0656,-22.892379 36.1273,-28.462942 14.23,-7.166132 22.9503,-9.247805 38.7395,-9.247805 22.4039,0 36.8723,5.561925 49.8433,19.160688 12.5376,13.144399 18.7679,29.559329 20.8386,54.903649 0.705,8.62936 0.92,16.63283 0.4776,17.78549 -0.691,1.80082 -3.6438,2.04407 -20.9819,1.72854 L 1116.6667,166 1115.832,152 c -1.3277,-22.27155 -7.1897,-34.11703 -20.0565,-40.52883 -5.4033,-2.69258 -8.9537,-3.47117 -15.8286,-3.47117 -20.1478,0 -38.292,11.41513 -62.0594,39.04363 l -11.2208,13.04361 v 75.28972 75.28971 H 986 965.33333 Z M 1209.3333,158 V 5.3333333 h 26.4764 26.4763 l 43.3626,92.3333337 c 23.8494,50.783333 49.585,106.564243 57.1903,123.957563 l 13.8278,31.62422 0.3402,-123.95756 0.3402,-123.9575567 H 1396.6736 1416 V 158 310.66667 l -27,-7.1e-4 -27,-7.1e-4 -45.5719,-97.66596 c -25.0645,-53.71628 -50.5645,-109.64538 -56.6667,-124.286902 l -11.0947,-26.620944 -0.3402,124.287606 -0.3402,124.28762 h -19.3265 -19.3265 z m 237.3354,151.69969 c 10e-4,-0.56816 22.6962,-69.13302 50.4337,-152.36636 L 1547.5341,6 h 28.4944 28.4944 l 49.7386,151.95117 C 1681.6176,241.52433 1704,310.07433 1704,310.28451 c 0,0.21018 -10.1744,0.38216 -22.6096,0.38216 h -22.6097 L 1649.3079,281 c -5.21,-16.31667 -9.9356,-31.16667 -10.5012,-33 l -1.0286,-3.33333 -63.3076,-0.34611 -63.3077,-0.34611 -10.6503,33.01278 -10.6504,33.01277 -21.5977,0.36636 c -11.8788,0.20151 -21.5968,-0.0985 -21.5957,-0.66667 z m 177.8824,-106.03302 c -0.5292,-1.65 -11.9511,-37.73139 -25.3819,-80.18087 -13.4309,-42.449475 -24.5884,-77.344139 -24.7945,-77.543696 -0.206,-0.199559 -11.83,35.881831 -25.831,80.180866 l -25.4561,80.5437 h 51.2127 51.2128 z"
       id="path30"
       inkscape:connector-curvature="0" />
    <path
       style="fill:#6d6d6d;stroke-width:1.33333337"
       d="m 54.404896,311.94593 c -6.06052,-3.20077 -11.004267,-9.55097 -12.933191,-16.6126 -0.95296,-3.48869 -1.459405,-26.20076 -1.464269,-65.66666 L 40,169.33333 l -9.666667,-0.008 c -12.96369,-0.009 -18.627462,-1.7897 -23.5569783,-7.40412 -3.5280682,-4.01824 -4.109688,-5.72132 -4.109688,-12.03382 0,-4.04423 0.8889756,-9.07224 1.9755014,-11.17335 C 7.1446132,133.87484 154.6432,7.0975053 160.72961,4.5544369 c 6.87018,-2.870541 18.98063,-2.421553 25.24499,0.9359435 4.30525,2.3074832 18.98439,14.2694646 36.21709,29.5132106 2.81424,2.489421 2.94803,2.480708 8.66667,-0.56445 4.79672,-2.55424 7.78215,-3.08396 17.14164,-3.04154 14.08569,0.06384 19.86156,1.983458 25.82332,8.582402 6.11372,6.767158 7.4936,12.302925 7.50257,30.09849 0.005,9.796704 0.56678,15.437592 1.67411,16.808434 0.91667,1.1348 13.99764,12.599618 29.06883,25.477373 15.0712,12.87776 28.1212,24.99219 29,26.92097 0.87881,1.92878 1.59784,6.75776 1.59784,10.73108 0,6.16845 -0.60059,7.90822 -4.1097,11.90486 -4.9295,5.61442 -10.59328,7.39471 -23.55697,7.40468 l -9.66667,0.007 -0.008,60.33334 c -0.005,39.4659 -0.5113,62.17797 -1.46426,65.66666 -1.96818,7.20531 -6.93627,13.47372 -13.21908,16.67898 -5.07666,2.5899 -7.94794,2.65293 -118.2561,2.59542 -109.496794,-0.0571 -113.208151,-0.1408 -117.981554,-2.6618 z M 284.11812,293.51896 c 2.43555,-3.00816 2.54855,-6.19693 2.54855,-71.92132 0,-53.56557 0.36854,-69.00761 1.66666,-69.83187 0.91667,-0.58205 8.98126,-1.06746 17.92131,-1.07869 8.94005,-0.0107 16.56931,-0.52955 16.95389,-1.15183 1.04652,-1.69328 -2.26953,-4.84414 -31.82136,-30.23614 C 276.48499,106.49461 263.92652,95.065032 263.47948,93.900049 263.03243,92.735067 262.66667,83.797443 262.66667,74.038661 262.66667,51.602523 261.77796,50 249.33569,50 c -7.36792,0 -8.57145,0.393189 -11.45113,3.741019 -1.79369,2.085282 -3.21789,5.443641 -3.21789,7.587977 0,8.457305 -2.65067,6.943233 -32.23164,-18.410865 C 188.74096,31.180832 176.32095,21.191715 174.835,20.720093 c -1.48595,-0.471621 -4.38171,0.03527 -6.43503,1.126418 -4.40561,2.341178 -144.569498,122.807529 -146.140455,125.603019 -1.560703,2.77724 0.409188,3.14222 19.073818,3.53398 L 58,151.33333 l 0.666667,70 c 0.366666,38.5 1.178062,70.79204 1.803102,71.76011 0.62504,0.96805 2.42504,2.28553 4,2.92773 1.57496,0.64219 51.066721,1.05015 109.981681,0.90656 l 107.11811,-0.26106 z M 162.82865,252.38679 c -8.97884,-4.4233 -12.43686,-17.54664 -6.98108,-26.49351 6.87547,-11.27497 26.47782,-11.23239 33.46475,0.0727 3.43201,5.5531 3.51051,14.6683 0.17344,20.14072 -4.81467,7.89549 -17.37253,10.85396 -26.65711,6.28006 z m -26.84133,-45.73527 c -3.07688,-3.675 -5.28709,-7.48247 -4.91158,-8.46103 1.01183,-2.6368 12.33401,-9.77805 20.12323,-12.69237 20.03147,-7.49473 44.17954,-3.32391 60.80103,10.50148 l 4.66667,3.88164 -6.96164,7.00515 -6.96164,7.00514 -3.74594,-2.76948 c -11.17068,-8.25884 -24.85002,-11.56834 -35.69076,-8.63485 -2.94798,0.79773 -8.87068,3.56445 -13.16153,6.14828 -4.29087,2.58381 -7.97301,4.69785 -8.18255,4.69785 -0.20953,0 -2.89841,-3.00681 -5.97529,-6.68181 z m -22.54164,-26.31819 c -2.98565,-3.48333 -5.43234,-6.73234 -5.43707,-7.22001 -0.0228,-2.34843 13.67265,-12.48095 23.25302,-17.20367 14.78173,-7.28674 27.04008,-9.67188 45.40504,-8.8345 16.65681,0.75948 28.79432,3.97182 41.33333,10.93941 9.13443,5.07575 19.33333,13.41689 19.33333,15.81173 0,0.89016 -2.6955,4.26392 -5.99,7.49723 l -5.99,5.87875 -3.67666,-2.9356 c -5.96844,-4.76544 -16.48392,-10.73138 -24.34334,-13.81115 -8.94733,-3.50608 -29.38704,-4.79716 -40.24857,-2.54232 -9.32525,1.93592 -24.49498,9.14641 -30.69473,14.58987 -2.60814,2.28998 -5.36618,4.1636 -6.12898,4.1636 -0.76279,0 -3.82971,-2.85 -6.81537,-6.33334 z M 240,155.29201 c -12.7778,-9.08734 -29.08129,-17.1398 -42.28621,-20.88553 -7.89988,-2.2409 -13.8853,-2.93875 -25.04712,-2.92027 -22.89211,0.0379 -40.54193,5.94228 -63.55006,21.25942 -7.09486,4.72324 -13.423618,8.5877 -14.063902,8.5877 -2.312305,0 -12.692057,-11.75949 -11.739781,-13.30032 2.609565,-4.22236 22.343413,-18.1075 33.149173,-23.32444 19.48203,-9.40578 31.08285,-11.90832 55.5379,-11.98072 16.10091,-0.0477 22.87591,0.50056 30.66667,2.48154 20.3183,5.16637 35.88882,13.00392 51.42956,25.88749 9.61606,7.97192 9.6311,8.21675 1.00932,16.43837 L 250,162.40384 Z m 286.66667,157.87508 c -16.40579,-1.89258 -30.50384,-6.0451 -45.33334,-13.35274 -12.45877,-6.13942 -15.47801,-8.38043 -27.42574,-20.35663 C 441.70732,267.22841 439.79224,264.60039 432.92711,250.66667 419.87904,224.18381 415.42781,201.61841 415.43685,162 c 0.007,-28.7313 1.48959,-40.45029 7.92956,-62.659336 15.03164,-51.838517 51.58919,-85.967829 101.38591,-94.6516527 28.43313,-4.95832341 69.83201,-0.6310049 94.29919,9.8568527 l 6.28182,2.692703 v 20.047384 c 0,11.02606 -0.23772,20.047382 -0.52828,20.047382 -0.29054,0 -4.94054,-2.07616 -10.33333,-4.613688 C 584.68055,38.701657 545.99088,35.331 520.61307,44.542651 475.78272,60.815189 452.66169,113.4438 460.05517,182.38588 c 5.44028,50.72909 27.1039,81.20037 65.27816,91.81799 6.82723,1.89889 13.19451,2.38202 30,2.27634 23.81671,-0.14976 36.47287,-2.64065 58.63934,-11.54096 l 11.36066,-4.56153 v 19.58036 19.58037 L 615,303.09069 c -28.67103,9.85612 -59.62983,13.38767 -88.33333,10.0764 z m 243.2886,-0.42933 c -52.945,-8.23021 -81.32962,-42.23729 -85.8542,-102.8604 -5.0402,-67.53147 25.58873,-119.957464 78.36012,-134.125067 14.53882,-3.903258 41.89486,-3.83458 56.87214,0.142779 28.69996,7.621549 48.39835,23.692236 60.2738,49.173638 8.00551,17.17758 9.933,27.24394 10.70966,55.93129 l 0.69488,25.66667 h -82.83916 -82.83918 l 0.0465,3.66666 c 0.22629,17.83738 8.79232,39.45788 20.12197,50.78754 20.04665,20.04665 56.16509,24.87276 110.38661,14.74974 7.76136,-1.44901 16.08068,-2.99429 18.48739,-3.43394 l 4.37583,-0.79938 -0.37583,16.5147 -0.37584,16.51468 -13.33333,2.96634 c -29.59886,6.58506 -70.87654,8.80983 -94.7114,5.10475 z m 78.86454,-138.65605 c 1.26512,-3.29687 -1.8572,-23.85734 -4.82932,-31.80106 C 838.13933,126.64202 827.02408,115.08566 812,109.02063 c -6.13811,-2.47787 -9.94109,-2.96528 -23.33333,-2.9905 -15.29346,-0.0288 -16.40127,0.15993 -25.08674,4.27374 -15.55833,7.3691 -28.06716,23.01097 -33.52501,41.92193 -2.60419,9.02331 -4.68607,21.37709 -3.83793,22.7742 0.33388,0.55 27.89048,1 61.23688,1 51.51537,0 60.74048,-0.28837 61.36594,-1.91829 z M 1784,313.15165 c -12.1531,-1.24462 -40.7592,-5.83841 -47.3333,-7.60116 l -4,-1.07253 -0.369,-19.57231 c -0.2377,-12.6095 0.113,-19.57232 0.9859,-19.57232 0.7453,0 7.5113,1.72568 15.0357,3.83484 21.7602,6.09963 42.2943,8.6126 70.3474,8.60916 35.2657,-0.004 53.101,-4.62945 65.0928,-16.88009 8.2433,-8.42135 11.4621,-16.72712 11.4573,-29.56391 0,-13.24409 -2.5276,-18.60581 -13.5592,-28.81912 -9.8373,-9.1077 -19.6017,-14.24428 -53.9115,-28.36034 -45.2737,-18.62694 -58.5504,-26.16779 -72.6962,-41.28974 -14.038,-15.00667 -20.2626,-33.151186 -18.3947,-53.620131 3.5068,-38.42788 33.7925,-66.341468 81.1644,-74.8070034 22.8835,-4.08937227 60.4799,-2.2841468 91.8471,4.4101104 L 1920,11.052407 V 29.526204 C 1920,39.686792 1919.65,48 1919.2221,48 c -0.4277,0 -5.3814,-1.175415 -11.0081,-2.612033 -20.1959,-5.156472 -36.194,-7.07885 -58.8807,-7.075264 -18.0573,0.0028 -23.8325,0.498068 -32.2254,2.763242 -12.9139,3.485362 -19.8927,7.042188 -26.2075,13.356926 -7.1099,7.109904 -10.0344,13.979954 -10.6457,25.007725 -1.338,24.137004 13.0881,36.879414 66.1764,58.452724 50.2188,20.40725 67.3517,31.13439 80.3886,50.33216 8.4899,12.50177 10.8139,19.85364 11.5276,36.46655 1.0823,25.18832 -5.258,42.34762 -21.7354,58.82508 -15.9416,15.94169 -40.968,26.30073 -71.9452,29.7799 -14.0675,1.57999 -44.5324,1.50699 -60.6667,-0.14536 z M 965.33333,194 V 77.333333 H 984 h 18.6667 l 0.1447,13 c 0.08,7.15 0.5296,16.475627 1,20.723617 l 0.8553,7.72363 7.2146,-8.21144 C 1026.743,93.653936 1049.7072,78.90026 1068,74.514808 c 9.3011,-2.229811 27.8138,-2.191977 37.3333,0.07629 32.1092,7.650831 49.8661,33.231272 51.6518,74.408902 l 0.7083,16.33333 h -20.0447 -20.0447 l -0.8753,-9.66666 c -2.4116,-26.63334 -7.9795,-38.28969 -21.2393,-44.46379 -8.1501,-3.79489 -20.7242,-4.27627 -31.1131,-1.19111 -13.1658,3.90982 -30.7967,18.00216 -47.6432,38.08102 l -10.0664,11.99782 v 75.28803 75.28803 H 986 965.33333 Z M 1209.3333,158.63905 V 6.611452 l 26.8634,0.3609407 26.8633,0.3609406 41.0773,87.3333337 c 22.5925,48.033333 48.154,103.474213 56.8034,123.201963 l 15.726,35.86862 0.3402,-123.53529 0.3403,-123.5352933 H 1396.6736 1416 v 152.0000033 152 l -27,-0.0323 -27,-0.0323 -43.758,-93.79409 c -24.0669,-51.58671 -49.7062,-107.82219 -56.9761,-124.967708 l -13.2181,-31.173665 -0.024,125.000003 -0.024,125 h -19.3333 -19.3334 z m 237.6376,150.39472 c 0.3386,-0.93524 23.0239,-69.35044 50.412,-152.03377 l 49.7966,-150.3333333 28.7436,0.011947 28.7436,0.011947 49.1922,150.3213993 c 27.0558,82.67676 49.4558,151.07138 49.7778,151.98805 0.4536,1.29089 -4.5199,1.66667 -22.0588,1.66667 h -22.6444 l -7.5404,-23.66667 c -4.1474,-13.01667 -8.9072,-27.86667 -10.5778,-33 l -3.0372,-9.33333 -63.3961,-0.34616 -63.3961,-0.34618 -8.902,27.67951 c -4.8963,15.22372 -9.6675,30.07949 -10.6027,33.01283 l -1.7007,5.33333 -21.7125,0.36711 c -17.1527,0.29001 -21.5833,0.009 -21.0971,-1.33334 z m 177.8315,-104.70044 c -6.51,-21.37332 -49.3227,-156.124425 -49.9851,-157.325722 -0.5032,-0.912483 -10.1528,27.587517 -21.4437,63.333332 -11.2908,35.74582 -22.7551,72.04239 -25.476,80.65906 l -4.9472,15.66667 h 51.2813 c 48.2212,0 51.239,-0.13924 50.5707,-2.33334 z"
       id="path28"
       inkscape:connector-curvature="0" />
    <path
       style="fill:#505050;stroke-width:1.33333337"
       d="m 54.404896,311.94593 c -6.06052,-3.20077 -11.004267,-9.55097 -12.933191,-16.6126 -0.95296,-3.48869 -1.459405,-26.20076 -1.464269,-65.66666 L 40,169.33333 l -9.666667,-0.008 c -12.96369,-0.009 -18.627462,-1.7897 -23.5569783,-7.40412 -3.5280682,-4.01824 -4.109688,-5.72132 -4.109688,-12.03382 0,-4.04423 0.8889756,-9.07224 1.9755014,-11.17335 C 7.1446132,133.87484 154.6432,7.0975053 160.72961,4.5544369 c 6.87018,-2.870541 18.98063,-2.421553 25.24499,0.9359435 4.30525,2.3074832 18.98439,14.2694646 36.21709,29.5132106 2.81424,2.489421 2.94803,2.480708 8.66667,-0.56445 4.79672,-2.55424 7.78215,-3.08396 17.14164,-3.04154 14.08569,0.06384 19.86156,1.983458 25.82332,8.582402 6.11372,6.767158 7.4936,12.302925 7.50257,30.09849 0.005,9.796704 0.56678,15.437592 1.67411,16.808434 0.91667,1.1348 13.99764,12.599618 29.06883,25.477373 15.0712,12.87776 28.1212,24.99219 29,26.92097 0.87881,1.92878 1.59784,6.75776 1.59784,10.73108 0,6.16845 -0.60059,7.90822 -4.1097,11.90486 -4.9295,5.61442 -10.59328,7.39471 -23.55697,7.40468 l -9.66667,0.007 -0.008,60.33334 c -0.005,39.4659 -0.5113,62.17797 -1.46426,65.66666 -1.96818,7.20531 -6.93627,13.47372 -13.21908,16.67898 -5.07666,2.5899 -7.94794,2.65293 -118.2561,2.59542 -109.496794,-0.0571 -113.208151,-0.1408 -117.981554,-2.6618 z M 284.11812,293.51896 c 2.43555,-3.00816 2.54855,-6.19693 2.54855,-71.92132 0,-53.56557 0.36854,-69.00761 1.66666,-69.83187 0.91667,-0.58205 8.98126,-1.06746 17.92131,-1.07869 8.94005,-0.0107 16.56931,-0.52955 16.95389,-1.15183 1.04652,-1.69328 -2.26953,-4.84414 -31.82136,-30.23614 C 276.48499,106.49461 263.92652,95.065032 263.47948,93.900049 263.03243,92.735067 262.66667,83.797443 262.66667,74.038661 262.66667,51.602523 261.77796,50 249.33569,50 c -7.36792,0 -8.57145,0.393189 -11.45113,3.741019 -1.79369,2.085282 -3.21789,5.443641 -3.21789,7.587977 0,8.457305 -2.65067,6.943233 -32.23164,-18.410865 C 188.74096,31.180832 176.32095,21.191715 174.835,20.720093 c -1.48595,-0.471621 -4.38171,0.03527 -6.43503,1.126418 -4.40561,2.341178 -144.569498,122.807529 -146.140455,125.603019 -1.560703,2.77724 0.409188,3.14222 19.073818,3.53398 L 58,151.33333 l 0.666667,70 c 0.366666,38.5 1.178062,70.79204 1.803102,71.76011 0.62504,0.96805 2.42504,2.28553 4,2.92773 1.57496,0.64219 51.066721,1.05015 109.981681,0.90656 l 107.11811,-0.26106 z M 162.82865,252.38679 c -8.97884,-4.4233 -12.43686,-17.54664 -6.98108,-26.49351 6.87547,-11.27497 26.47782,-11.23239 33.46475,0.0727 3.43201,5.5531 3.51051,14.6683 0.17344,20.14072 -4.81467,7.89549 -17.37253,10.85396 -26.65711,6.28006 z m -26.84133,-45.73527 c -3.07688,-3.675 -5.28709,-7.48247 -4.91158,-8.46103 1.01183,-2.6368 12.33401,-9.77805 20.12323,-12.69237 20.03147,-7.49473 44.17954,-3.32391 60.80103,10.50148 l 4.66667,3.88164 -6.96164,7.00515 -6.96164,7.00514 -3.74594,-2.76948 c -11.17068,-8.25884 -24.85002,-11.56834 -35.69076,-8.63485 -2.94798,0.79773 -8.87068,3.56445 -13.16153,6.14828 -4.29087,2.58381 -7.97301,4.69785 -8.18255,4.69785 -0.20953,0 -2.89841,-3.00681 -5.97529,-6.68181 z m -22.54164,-26.31819 c -2.98565,-3.48333 -5.43234,-6.73234 -5.43707,-7.22001 -0.0228,-2.34843 13.67265,-12.48095 23.25302,-17.20367 14.78173,-7.28674 27.04008,-9.67188 45.40504,-8.8345 16.65681,0.75948 28.79432,3.97182 41.33333,10.93941 9.13443,5.07575 19.33333,13.41689 19.33333,15.81173 0,0.89016 -2.6955,4.26392 -5.99,7.49723 l -5.99,5.87875 -3.67666,-2.9356 c -5.96844,-4.76544 -16.48392,-10.73138 -24.34334,-13.81115 -8.94733,-3.50608 -29.38704,-4.79716 -40.24857,-2.54232 -9.32525,1.93592 -24.49498,9.14641 -30.69473,14.58987 -2.60814,2.28998 -5.36618,4.1636 -6.12898,4.1636 -0.76279,0 -3.82971,-2.85 -6.81537,-6.33334 z M 240,155.29201 c -12.7778,-9.08734 -29.08129,-17.1398 -42.28621,-20.88553 -7.89988,-2.2409 -13.8853,-2.93875 -25.04712,-2.92027 -22.89211,0.0379 -40.54193,5.94228 -63.55006,21.25942 -7.09486,4.72324 -13.423618,8.5877 -14.063902,8.5877 -2.312305,0 -12.692057,-11.75949 -11.739781,-13.30032 2.609565,-4.22236 22.343413,-18.1075 33.149173,-23.32444 19.48203,-9.40578 31.08285,-11.90832 55.5379,-11.98072 16.10091,-0.0477 22.87591,0.50056 30.66667,2.48154 20.3183,5.16637 35.88882,13.00392 51.42956,25.88749 9.61606,7.97192 9.6311,8.21675 1.00932,16.43837 L 250,162.40384 Z m 288.80643,158.00192 c -30.0094,-3.42666 -53.47619,-13.41745 -71.8596,-30.59362 C 435.93109,263.06467 423.7004,237.81743 417.85268,202 414.94999,184.22103 414.59779,143.46235 417.20747,127.33333 424.9246,79.638025 444.58137,45.159135 476.05991,24.103492 496.90569,10.159969 516.30797,4.3363065 546,3.1107228 c 23.45799,-0.968264 43.36221,1.7182339 64,8.6381582 l 14.66667,4.917786 0.36733,20.197392 0.36732,20.19739 -12.06371,-5.200946 c -29.38589,-12.668954 -60.44836,-16.171594 -85.88884,-9.684931 -26.39084,6.728981 -48.87394,28.351 -59.22454,56.956271 -14.27306,39.445517 -12.18606,97.760357 4.74304,132.529437 3.76258,7.72764 7.72474,13.06184 15.6994,21.13585 16.41097,16.61546 31.44118,22.78634 58.82878,24.15306 23.11159,1.15332 48.90918,-3.66604 69.42967,-12.97048 l 8.47873,-3.84444 -0.3686,19.59904 -0.36858,19.59902 L 610,304.22125 c -24.65313,8.21608 -57.02077,11.83288 -81.19357,9.07268 z m 244.85981,-0.003 c -21.86357,-2.963 -43.20389,-12.00591 -56.68337,-24.01998 -13.7779,-12.28004 -24.76944,-32.52846 -29.64128,-54.60462 -2.98959,-13.54696 -4.15578,-49.86312 -2.06122,-64.1879 6.08207,-41.5955 28.68626,-74.185299 61.80303,-89.10507 26.48405,-11.931596 65.95027,-10.981839 92.70595,2.230975 12.31874,6.083392 28.31808,20.865675 35.24304,32.562145 6.11217,10.32366 12.22942,28.83538 14.18624,42.92966 1.67272,12.04815 1.91137,43.44284 0.34893,45.90352 -0.8278,1.30371 -18.86363,1.66667 -82.81853,1.66667 h -81.76026 l 0.89587,9.0916 c 3.40515,34.55693 22.37085,56.68733 54.11536,63.14529 18.0204,3.66599 60.40029,1.19351 88.40039,-5.15735 4.98688,-1.1311 9.33688,-1.78672 9.66666,-1.45693 0.32979,0.32979 0.59962,7.57552 0.59962,16.10164 v 15.50204 l -5,1.46323 c -24.1631,7.07126 -76.01056,11.1851 -100.00043,7.93453 z m 74.79264,-146.98839 c -0.28256,-12.28119 -2.57073,-21.27173 -8.1516,-32.02865 -5.60993,-10.81352 -13.67284,-18.40031 -25.64061,-24.12709 -8.32472,-3.98351 -9.35056,-4.14714 -26,-4.14714 -16.46392,0 -17.7346,0.19615 -25.33334,3.91061 -19.56246,9.56266 -32.80544,30.98515 -37.36042,60.43612 l -0.8785,5.68006 61.78612,-0.34672 61.78614,-0.34674 -0.20779,-9.031 z m 938.59182,146.90229 c -12.8135,-1.14209 -42.142,-5.69562 -49.0507,-7.61558 l -4,-1.11163 -0.3699,-19.73739 c -0.3445,-18.38017 -0.207,-19.68968 2,-19.04349 33.184,9.71617 49.9,12.16708 83.0366,12.17481 20.0125,0.005 28.1493,-0.51874 35.3333,-2.27286 24.0185,-5.86466 35.4991,-15.20066 40.0156,-32.54091 3.4633,-13.29655 2.2128,-22.34609 -4.4611,-32.28325 -8.3394,-12.41716 -22.7348,-21.05399 -60.2212,-36.13106 -43.0408,-17.31106 -60.7092,-27.18593 -73.6492,-41.16268 -13.791,-14.89608 -18.8498,-27.63857 -18.8498,-47.48113 0,-38.952607 26.1337,-68.002451 71.5169,-79.4971152 16.9552,-4.2944116 54.4459,-4.9512847 78.3155,-1.3721644 9.9,1.4844527 21.15,3.3870351 25,4.2279609 l 7,1.5289567 V 29.212855 47.538071 L 1905,44.453363 c -21.8105,-4.92286 -34.9209,-6.374174 -57,-6.309835 -29.8264,0.08692 -45.3725,4.5623 -57.308,16.497767 -7.2551,7.255108 -9.658,12.566664 -10.4044,22.998028 -1.0108,14.1266 1.2903,20.138337 11.6207,30.360677 11.5346,11.41391 18.4992,15.31193 51.3973,28.76679 46.4125,18.98205 60.4291,26.70696 74.6944,41.16612 13.9093,14.09837 20.6836,30.72673 20.6469,50.68056 -0.087,47.37662 -34.3166,77.85093 -95.051,84.62322 -14.4614,1.61254 -38.2488,1.59928 -56.5452,-0.0315 z M 965.33333,194 V 77.333333 H 984 h 18.6667 l 0.1577,17 c 0.087,9.349997 0.5368,18.741927 1,20.870947 l 0.8423,3.87095 6.2465,-7.31529 c 3.4355,-4.02341 10.373,-10.69134 15.4166,-14.817636 20.9711,-17.157185 37.7051,-23.815443 59.6702,-23.742177 37.914,0.126466 61.0559,19.169682 68.7803,56.598533 1.3849,6.71074 2.5259,17.45134 2.5355,23.86801 l 0.017,11.66666 h -19.7102 -19.7103 l -1.562,-14.69729 c -3.1525,-29.66198 -14.2918,-42.81118 -36.3844,-42.94949 -20.2973,-0.12706 -39.4935,12.15415 -63.8621,40.85722 l -9.4376,11.1164 v 75.50324 75.50326 H 986 965.33333 Z M 1209.3333,158.63905 V 6.611452 l 26.7651,0.3609407 26.765,0.3609406 42.3013,89.9999997 c 23.2657,49.499997 48.8714,104.999997 56.9017,123.333337 L 1376.6667,254 1377.0069,130.33333 1377.3472,6.6666667 H 1396.6736 1416 V 158.69428 310.72188 L 1389.0399,310.36095 1362.0797,310 1317.7836,215.33333 C 1293.4207,163.26667 1267.9027,107.29291 1261.077,90.9472 l -12.4103,-29.719467 -0.3402,124.719467 -0.3402,124.71947 h -19.3265 -19.3265 z M 1447.0393,309 c 0.3272,-0.91667 23.0272,-69.32509 50.4444,-152.01872 l 49.8496,-150.3520471 28.6256,0.3520503 28.6256,0.3520501 49.5759,151.3333367 49.5759,151.33333 -22.1903,0.36703 c -17.0433,0.2819 -22.3328,-0.0273 -22.8048,-1.33334 -0.338,-0.9352 -5.1597,-15.80036 -10.7148,-33.03369 l -10.1003,-31.33333 -63.5532,-0.34622 -63.5532,-0.34621 -10.7892,33.34621 -10.7893,33.34622 h -21.3984 c -16.5471,0 -21.2635,-0.37786 -20.8035,-1.66667 z m 178.294,-102.37173 c 0,-2.06312 -49.6113,-159.134311 -50.6394,-160.326074 -1.0215,-1.184175 -52.0546,159.179654 -51.1394,160.697804 0.9674,1.60448 101.7788,1.23628 101.7788,-0.37173 z"
       id="path26"
       inkscape:connector-curvature="0" />
    <path
       style="fill:#2d2d2d;stroke-width:1.33333337"
       d="m 54.404896,311.94593 c -6.06052,-3.20077 -11.004267,-9.55097 -12.933191,-16.6126 -0.95296,-3.48869 -1.459405,-26.20076 -1.464269,-65.66666 L 40,169.33333 l -9.666667,-0.008 c -12.96369,-0.009 -18.627462,-1.7897 -23.5569783,-7.40412 -3.5280682,-4.01824 -4.109688,-5.72132 -4.109688,-12.03382 0,-4.04423 0.8889756,-9.07224 1.9755014,-11.17335 C 7.1446132,133.87484 154.6432,7.0975053 160.72961,4.5544369 c 6.87018,-2.870541 18.98063,-2.421553 25.24499,0.9359435 4.30525,2.3074832 18.98439,14.2694646 36.21709,29.5132106 2.81424,2.489421 2.94803,2.480708 8.66667,-0.56445 4.79672,-2.55424 7.78215,-3.08396 17.14164,-3.04154 14.08569,0.06384 19.86156,1.983458 25.82332,8.582402 6.11372,6.767158 7.4936,12.302925 7.50257,30.09849 0.005,9.796704 0.56678,15.437592 1.67411,16.808434 0.91667,1.1348 13.99764,12.599618 29.06883,25.477373 15.0712,12.87776 28.1212,24.99219 29,26.92097 0.87881,1.92878 1.59784,6.75776 1.59784,10.73108 0,6.16845 -0.60059,7.90822 -4.1097,11.90486 -4.9295,5.61442 -10.59328,7.39471 -23.55697,7.40468 l -9.66667,0.007 -0.008,60.33334 c -0.005,39.4659 -0.5113,62.17797 -1.46426,65.66666 -1.96818,7.20531 -6.93627,13.47372 -13.21908,16.67898 -5.07666,2.5899 -7.94794,2.65293 -118.2561,2.59542 -109.496794,-0.0571 -113.208151,-0.1408 -117.981554,-2.6618 z M 284.11812,293.51896 c 2.43555,-3.00816 2.54855,-6.19693 2.54855,-71.92132 0,-53.56557 0.36854,-69.00761 1.66666,-69.83187 0.91667,-0.58205 8.98126,-1.06746 17.92131,-1.07869 8.94005,-0.0107 16.56931,-0.52955 16.95389,-1.15183 1.04652,-1.69328 -2.26953,-4.84414 -31.82136,-30.23614 C 276.48499,106.49461 263.92652,95.065032 263.47948,93.900049 263.03243,92.735067 262.66667,83.797443 262.66667,74.038661 262.66667,51.602523 261.77796,50 249.33569,50 c -7.36792,0 -8.57145,0.393189 -11.45113,3.741019 -1.79369,2.085282 -3.21789,5.443641 -3.21789,7.587977 0,8.457305 -2.65067,6.943233 -32.23164,-18.410865 C 188.74096,31.180832 176.32095,21.191715 174.835,20.720093 c -1.48595,-0.471621 -4.38171,0.03527 -6.43503,1.126418 -4.40561,2.341178 -144.569498,122.807529 -146.140455,125.603019 -1.560703,2.77724 0.409188,3.14222 19.073818,3.53398 L 58,151.33333 l 0.666667,70 c 0.366666,38.5 1.178062,70.79204 1.803102,71.76011 0.62504,0.96805 2.42504,2.28553 4,2.92773 1.57496,0.64219 51.066721,1.05015 109.981681,0.90656 l 107.11811,-0.26106 z M 162.82865,252.38679 c -8.97884,-4.4233 -12.43686,-17.54664 -6.98108,-26.49351 6.87547,-11.27497 26.47782,-11.23239 33.46475,0.0727 3.43201,5.5531 3.51051,14.6683 0.17344,20.14072 -4.81467,7.89549 -17.37253,10.85396 -26.65711,6.28006 z m -26.84133,-45.73527 c -3.07688,-3.675 -5.28709,-7.48247 -4.91158,-8.46103 1.01183,-2.6368 12.33401,-9.77805 20.12323,-12.69237 20.03147,-7.49473 44.17954,-3.32391 60.80103,10.50148 l 4.66667,3.88164 -6.96164,7.00515 -6.96164,7.00514 -3.74594,-2.76948 c -11.17068,-8.25884 -24.85002,-11.56834 -35.69076,-8.63485 -2.94798,0.79773 -8.87068,3.56445 -13.16153,6.14828 -4.29087,2.58381 -7.97301,4.69785 -8.18255,4.69785 -0.20953,0 -2.89841,-3.00681 -5.97529,-6.68181 z m -22.54164,-26.31819 c -2.98565,-3.48333 -5.43234,-6.73234 -5.43707,-7.22001 -0.0228,-2.34843 13.67265,-12.48095 23.25302,-17.20367 14.78173,-7.28674 27.04008,-9.67188 45.40504,-8.8345 16.65681,0.75948 28.79432,3.97182 41.33333,10.93941 9.13443,5.07575 19.33333,13.41689 19.33333,15.81173 0,0.89016 -2.6955,4.26392 -5.99,7.49723 l -5.99,5.87875 -3.67666,-2.9356 c -5.96844,-4.76544 -16.48392,-10.73138 -24.34334,-13.81115 -8.94733,-3.50608 -29.38704,-4.79716 -40.24857,-2.54232 -9.32525,1.93592 -24.49498,9.14641 -30.69473,14.58987 -2.60814,2.28998 -5.36618,4.1636 -6.12898,4.1636 -0.76279,0 -3.82971,-2.85 -6.81537,-6.33334 z M 240,155.29201 c -12.7778,-9.08734 -29.08129,-17.1398 -42.28621,-20.88553 -7.89988,-2.2409 -13.8853,-2.93875 -25.04712,-2.92027 -22.89211,0.0379 -40.54193,5.94228 -63.55006,21.25942 -7.09486,4.72324 -13.423618,8.5877 -14.063902,8.5877 -2.312305,0 -12.692057,-11.75949 -11.739781,-13.30032 2.609565,-4.22236 22.343413,-18.1075 33.149173,-23.32444 19.48203,-9.40578 31.08285,-11.90832 55.5379,-11.98072 16.10091,-0.0477 22.87591,0.50056 30.66667,2.48154 20.3183,5.16637 35.88882,13.00392 51.42956,25.88749 9.61606,7.97192 9.6311,8.21675 1.00932,16.43837 L 250,162.40384 Z M 532.66667,313.1694 c -33.57626,-2.38877 -60.97731,-14.4538 -80.97804,-35.65563 -21.16931,-22.44058 -32.46236,-52.86441 -35.7949,-96.43246 -3.68084,-48.12175 6.02951,-91.902267 27.66046,-124.711198 6.0179,-9.127715 21.25436,-24.737968 30.01334,-30.749659 10.75547,-7.381972 27.61788,-15.062305 40.9377,-18.6459183 11.66877,-3.1394135 15.11758,-3.4521392 38.16144,-3.4603514 22.6098,-0.00805 26.91012,0.362149 40,3.4435315 C 600.73333,8.8566227 611.23333,11.877799 616,13.67144 l 8.66667,3.261165 0.36828,20.240534 0.36828,20.240532 -6.71883,-3.404684 c -17.07188,-8.650975 -45.57348,-15.316768 -65.56711,-15.33446 -47.38754,-0.04193 -79.85786,29.341457 -91.3427,82.658803 -3.40455,15.80534 -3.4083,59.44398 -0.007,76.4352 7.06937,35.31064 22.58843,58.58255 46.84612,70.24907 15.62079,7.51268 29.04771,9.84499 51.328,8.91584 20.29249,-0.84624 34.11976,-3.75653 52.18161,-10.98296 6.34722,-2.53943 11.91592,-4.61715 12.37499,-4.61715 0.45908,0 0.83469,8.43062 0.83469,18.73471 v 18.73469 l -4.57252,1.91052 c -23.07528,9.64148 -58.08236,14.59134 -88.09414,12.45615 z m 242.35864,0.13889 C 755.47189,310.62255 739.67743,304.97685 725.85704,295.73321 707.68084,283.57624 695.68153,265.06639 688.43053,238 c -3.3307,-12.43285 -3.57386,-15.22436 -3.60036,-41.33333 -0.0267,-26.30302 0.19014,-28.8081 3.57724,-41.33334 10.53327,-38.95114 33.92878,-65.525919 68.25926,-77.535153 10.04574,-3.514128 11.98613,-3.73328 33.33333,-3.764756 20.09135,-0.02963 23.80284,0.321346 32.66667,3.089063 28.6491,8.94564 48.85029,27.163856 58.94377,53.157786 6.47651,16.67908 8.28156,28.06646 8.33824,52.60288 0.0283,12.21906 -0.29868,22.56906 -0.72645,23 -0.42779,0.43093 -37.56395,0.78352 -82.5248,0.78352 H 724.9504 l 0.84025,9 c 3.42503,36.68537 23.24514,58.21469 58.96743,64.05254 19.54407,3.19396 55.28368,0.68338 83.66757,-5.87738 5.00079,-1.1559 9.35079,-1.84318 9.66667,-1.52728 0.31589,0.31589 0.57435,7.55121 0.57435,16.0785 v 15.50416 L 873,305.42364 c -26.52115,7.144 -74.97668,11.04353 -97.97469,7.88465 z M 849.31019,169 c -0.032,-9.69536 -3.12844,-23.37173 -7.27668,-32.14039 -10.7365,-22.69508 -35.83503,-35.17924 -63.12439,-31.39844 -27.9172,3.86778 -47.7562,27.91535 -52.96887,64.2055 L 725.03055,176 h 62.1514 62.15138 l -0.0232,-7 z m 939.35651,144.15251 c -13.9471,-1.20043 -51.9016,-7.18898 -54.0748,-8.53203 -0.6959,-0.43011 -1.2586,-9.44975 -1.2586,-20.17516 0,-16.69767 0.2784,-19.29044 2.0008,-18.62952 5.9775,2.29376 28.3979,7.74067 39.9992,9.71755 9.788,1.66789 21.1331,2.27176 42.6667,2.27101 26.0076,-9.1e-4 30.5297,-0.33016 39.8851,-2.90401 24.4024,-6.71355 35.9305,-18.89824 37.6856,-39.8318 1.0917,-13.02312 -1.7723,-21.11354 -10.7031,-30.23399 -9.6845,-9.89028 -21.97,-16.70224 -53.0981,-29.44163 -37.2255,-15.23478 -48.7296,-20.72032 -60.4584,-28.82842 -26.2178,-18.12431 -37.2796,-41.17706 -33.7362,-70.305749 4.6675,-38.369456 37.3444,-65.883425 85.9391,-72.3609635 21.4928,-2.8649271 60.5188,-0.3559046 88.1527,5.6674329 l 7,1.5257826 v 18.26926 18.269262 l -12.7352,-3.078772 c -39.2679,-9.493132 -81.1656,-9.151911 -102.4098,0.834041 -15.3238,7.203063 -23.627,19.718221 -23.6774,35.688567 -0.039,12.376796 2.9294,18.869213 12.9644,28.353089 10.4444,9.8709 20.752,15.41799 53.6456,28.86971 33.6201,13.74887 50.8385,22.46558 62.6814,31.732 24.5392,19.20063 34.154,45.94262 27.6131,76.80116 -10.4439,49.27246 -64.5636,73.51162 -148.0821,66.32318 z M 965.33333,194 V 77.333333 H 984 h 18.6667 v 19.777778 c 0,10.877779 0.3887,20.166519 0.8638,20.641639 0.4752,0.47513 6.193,-4.49064 12.7063,-11.03505 13.8611,-13.927213 26.7203,-22.873783 40.9087,-28.461511 12.9718,-5.108569 34.1418,-6.44797 48.5331,-3.070625 31.7326,7.447015 49.0353,32.598846 51.2379,74.481106 l 0.8239,15.66666 h -20.0122 -20.0123 l -0.9073,-12.0194 c -1.2396,-16.42094 -4.8612,-27.48355 -11.4467,-34.965 -14.2761,-16.21852 -38.6941,-14.79272 -62.6952,3.66085 -7.5449,5.80099 -22.1733,20.65109 -31,31.46981 l -5,6.12838 v 75.52935 75.52935 H 986 965.33333 Z M 1209.3333,158.66667 V 6.6666667 h 26.5092 26.5092 l 44.5895,95.0000033 c 24.5243,52.25 50.2451,107.97864 57.1575,123.84142 l 12.568,28.84144 0.3402,-123.84143 0.3402,-123.8414333 H 1396.6736 1416 V 158.69428 310.72188 L 1389.1171,310.36095 1362.2343,310 1317.395,214 c -24.6615,-52.8 -50.2142,-108.81163 -56.7837,-124.470285 l -11.9446,-28.470286 -0.3402,124.803621 -0.3402,124.80362 h -19.3265 -19.3265 z m 239.3806,145.66666 C 1449.7608,300.85 1472.4288,232.6 1499.0872,152.66667 L 1547.5571,7.3333333 h 28.4569 28.4571 l 35.792,109.3333367 c 19.6856,60.13333 42.0112,128.38333 49.6122,151.66666 l 13.8204,42.33334 h -22.2684 -22.2685 L 1648.5868,277.33333 1638.0148,244 h -63.7159 c -49.7865,0 -63.8378,0.36436 -64.2734,1.66667 -0.3067,0.91666 -5.1367,15.91666 -10.7332,33.33333 l -10.1758,31.66667 h -21.153 -21.1531 z m 176.6208,-98 c 0,-2.4895 -49.4756,-158.818381 -50.6783,-160.122749 -0.5693,-0.617513 -1.67,0.882487 -2.4457,3.333334 -29.9252,94.541005 -49.544,156.954055 -49.544,157.613515 0,0.46341 23.1,0.84257 51.3333,0.84257 40.1771,0 51.3336,-0.36221 51.3347,-1.66667 z"
       id="path24"
       inkscape:connector-curvature="0" />
    <path
       style="fill:#ffffff;stroke-width:1.33333337"
       d="m 54.404896,311.94593 c -6.06052,-3.20077 -11.004267,-9.55097 -12.933191,-16.6126 -0.95296,-3.48869 -1.459405,-26.20076 -1.464269,-65.66666 L 40,169.33333 l -9.666667,-0.008 c -12.96369,-0.009 -18.627462,-1.7897 -23.5569783,-7.40412 -3.5280682,-4.01824 -4.109688,-5.72132 -4.109688,-12.03382 0,-4.04423 0.8889756,-9.07224 1.9755014,-11.17335 C 7.1446132,133.87484 154.6432,7.0975053 160.72961,4.5544369 c 6.87018,-2.870541 18.98063,-2.421553 25.24499,0.9359435 4.30525,2.3074832 18.98439,14.2694646 36.21709,29.5132106 2.81424,2.489421 2.94803,2.480708 8.66667,-0.56445 4.79672,-2.55424 7.78215,-3.08396 17.14164,-3.04154 14.08569,0.06384 19.86156,1.983458 25.82332,8.582402 6.11372,6.767158 7.4936,12.302925 7.50257,30.09849 0.005,9.796704 0.56678,15.437592 1.67411,16.808434 0.91667,1.1348 13.99764,12.599618 29.06883,25.477373 15.0712,12.87776 28.1212,24.99219 29,26.92097 0.87881,1.92878 1.59784,6.75776 1.59784,10.73108 0,6.16845 -0.60059,7.90822 -4.1097,11.90486 -4.9295,5.61442 -10.59328,7.39471 -23.55697,7.40468 l -9.66667,0.007 -0.008,60.33334 c -0.005,39.4659 -0.5113,62.17797 -1.46426,65.66666 -1.96818,7.20531 -6.93627,13.47372 -13.21908,16.67898 -5.07666,2.5899 -7.94794,2.65293 -118.2561,2.59542 -109.496794,-0.0571 -113.208151,-0.1408 -117.981554,-2.6618 z M 284.11812,293.51896 c 2.43555,-3.00816 2.54855,-6.19693 2.54855,-71.92132 0,-53.56557 0.36854,-69.00761 1.66666,-69.83187 0.91667,-0.58205 8.98126,-1.06746 17.92131,-1.07869 8.94005,-0.0107 16.56931,-0.52955 16.95389,-1.15183 1.04652,-1.69328 -2.26953,-4.84414 -31.82136,-30.23614 C 276.48499,106.49461 263.92652,95.065032 263.47948,93.900049 263.03243,92.735067 262.66667,83.797443 262.66667,74.038661 262.66667,51.602523 261.77796,50 249.33569,50 c -7.36792,0 -8.57145,0.393189 -11.45113,3.741019 -1.79369,2.085282 -3.21789,5.443641 -3.21789,7.587977 0,8.457305 -2.65067,6.943233 -32.23164,-18.410865 C 188.74096,31.180832 176.32095,21.191715 174.835,20.720093 c -1.48595,-0.471621 -4.38171,0.03527 -6.43503,1.126418 -4.40561,2.341178 -144.569498,122.807529 -146.140455,125.603019 -1.560703,2.77724 0.409188,3.14222 19.073818,3.53398 L 58,151.33333 l 0.666667,70 c 0.366666,38.5 1.178062,70.79204 1.803102,71.76011 0.62504,0.96805 2.42504,2.28553 4,2.92773 1.57496,0.64219 51.066721,1.05015 109.981681,0.90656 l 107.11811,-0.26106 z M 162.82865,252.38679 c -8.97884,-4.4233 -12.43686,-17.54664 -6.98108,-26.49351 6.87547,-11.27497 26.47782,-11.23239 33.46475,0.0727 3.43201,5.5531 3.51051,14.6683 0.17344,20.14072 -4.81467,7.89549 -17.37253,10.85396 -26.65711,6.28006 z m -26.84133,-45.73527 c -3.07688,-3.675 -5.28709,-7.48247 -4.91158,-8.46103 1.01183,-2.6368 12.33401,-9.77805 20.12323,-12.69237 20.03147,-7.49473 44.17954,-3.32391 60.80103,10.50148 l 4.66667,3.88164 -6.96164,7.00515 -6.96164,7.00514 -3.74594,-2.76948 c -11.17068,-8.25884 -24.85002,-11.56834 -35.69076,-8.63485 -2.94798,0.79773 -8.87068,3.56445 -13.16153,6.14828 -4.29087,2.58381 -7.97301,4.69785 -8.18255,4.69785 -0.20953,0 -2.89841,-3.00681 -5.97529,-6.68181 z m -22.54164,-26.31819 c -2.98565,-3.48333 -5.43234,-6.73234 -5.43707,-7.22001 -0.0228,-2.34843 13.67265,-12.48095 23.25302,-17.20367 14.78173,-7.28674 27.04008,-9.67188 45.40504,-8.8345 16.65681,0.75948 28.79432,3.97182 41.33333,10.93941 9.13443,5.07575 19.33333,13.41689 19.33333,15.81173 0,0.89016 -2.6955,4.26392 -5.99,7.49723 l -5.99,5.87875 -3.67666,-2.9356 c -5.96844,-4.76544 -16.48392,-10.73138 -24.34334,-13.81115 -8.94733,-3.50608 -29.38704,-4.79716 -40.24857,-2.54232 -9.32525,1.93592 -24.49498,9.14641 -30.69473,14.58987 -2.60814,2.28998 -5.36618,4.1636 -6.12898,4.1636 -0.76279,0 -3.82971,-2.85 -6.81537,-6.33334 z M 240,155.29201 c -12.7778,-9.08734 -29.08129,-17.1398 -42.28621,-20.88553 -7.89988,-2.2409 -13.8853,-2.93875 -25.04712,-2.92027 -22.89211,0.0379 -40.54193,5.94228 -63.55006,21.25942 -7.09486,4.72324 -13.423618,8.5877 -14.063902,8.5877 -2.312305,0 -12.692057,-11.75949 -11.739781,-13.30032 2.609565,-4.22236 22.343413,-18.1075 33.149173,-23.32444 19.48203,-9.40578 31.08285,-11.90832 55.5379,-11.98072 16.10091,-0.0477 22.87591,0.50056 30.66667,2.48154 20.3183,5.16637 35.88882,13.00392 51.42956,25.88749 9.61606,7.97192 9.6311,8.21675 1.00932,16.43837 L 250,162.40384 Z m 536.90425,158.00334 c -21.88682,-2.48926 -41.4224,-9.88444 -55.17949,-20.88816 -20.09484,-16.07304 -30.97168,-37.00648 -35.63267,-68.57831 -9.48532,-64.25012 13.09699,-118.42514 58.57458,-140.520556 16.5815,-8.056175 29.65053,-10.510427 51.23545,-9.621581 28.94611,1.191972 48.69277,9.251354 66.34677,27.078697 15.45952,15.61131 23.84828,35.28701 27.21192,63.82513 1.38935,11.78762 1.09563,39.9641 -0.43252,41.49226 -0.32112,0.3211 -37.37189,0.58384 -82.33505,0.58384 h -81.7512 l 0.85036,10.05985 c 2.89611,34.26089 22.39852,56.15383 55.88307,62.73296 19.22204,3.77681 67.18084,0.51137 90.43373,-6.15747 2.40947,-0.69102 4.57059,-1.06666 4.80249,-0.83477 0.23191,0.23191 0.42164,7.39852 0.42164,15.92581 v 15.50416 l -5.66666,1.52643 c -25.92223,6.98267 -70.22303,10.66264 -94.76242,7.87171 z m 72.42908,-145.08207 c 0,-9.12465 -3.94586,-25.59987 -8.06509,-33.67421 -13.4374,-26.33948 -49.49429,-37.731121 -78.04891,-24.65839 -19.11022,8.74895 -33.93484,32.03608 -37.24132,58.50021 L 725.02607,176 h 62.15364 62.15362 z m 951.33337,145.67039 c -2.9334,-0.28948 -11.8596,-1.15874 -19.836,-1.93166 -15.1334,-1.46644 -33.942,-4.4415 -42.4974,-6.722 l -5,-1.3328 v -19.28193 c 0,-10.60507 0.15,-19.2742 0.3334,-19.26475 0.1833,0.009 4.2333,1.2469 9,2.74986 24.208,7.63294 54.7157,11.27128 85.3333,10.17682 28.2597,-1.01017 43.9641,-5.5621 55.6673,-16.13524 8.2702,-7.47161 11.6204,-16.33504 11.6454,-30.80864 0.019,-10.70329 -0.3746,-12.67234 -3.637,-18.22205 -8.197,-13.94399 -22.242,-22.63428 -64.2261,-39.73976 -48.4645,-19.74576 -65.4417,-30.24879 -78.154,-48.35041 -8.7591,-12.47255 -11.9623,-22.92134 -11.9623,-39.02111 0,-25.070337 10.1986,-45.72936 29.746,-60.256432 C 1798.3877,2.4762255 1843.5972,-3.0023619 1907,8.7876572 l 11.6667,2.1694678 v 18.010207 c 0,17.981257 0,18.00916 -3,17.359187 -32.8084,-7.119631 -46.6534,-8.993186 -66.4571,-8.993186 -41.3636,0 -63.9283,12.126486 -69.3167,37.251487 -3.0806,14.365209 3.6114,29.12369 18.0226,39.74604 10.6052,7.81706 20.0246,12.45571 51.679,25.44961 42.9655,17.63698 54.9639,24.59072 69.8019,40.45382 18.1971,19.4542 23.7267,46.07306 15.2632,73.47452 -5.0031,16.19802 -19.9211,34.04771 -36.2764,43.40526 -9.4156,5.38708 -28.2544,11.60186 -42.9219,14.15966 -11.7828,2.05475 -44.5873,3.61727 -54.7946,2.60994 z M 517.74115,311.35269 c -29.34823,-5.32364 -54.4691,-19.35128 -71.13014,-39.71948 -14.32896,-17.51724 -25.73454,-47.17173 -29.27776,-76.12214 -2.4029,-19.63326 -1.80816,-55.22918 1.21708,-72.8444 C 429.49751,58.924261 465.59748,17.597283 520.54133,5.9081396 548.74779,-0.09269977 589.77957,3.4783279 617,14.303011 l 8.33333,3.313897 V 37.494313 57.37172 l -7.96778,-4.022124 C 592.56723,40.831444 557.30883,35.625103 532.27712,40.785229 c -47.30404,9.751426 -73.58664,51.78294 -73.60509,117.710321 -0.0176,62.71533 19.78932,100.03458 60.71214,114.39125 10.09044,3.53995 11.8036,3.72564 34.61583,3.75207 26.75835,0.0309 36.89251,-1.81392 59.25911,-10.78806 6.19249,-2.48461 11.45897,-4.51748 11.70326,-4.51748 0.2443,0 0.27771,8.521 0.0743,18.93556 l -0.36995,18.93556 -13.23478,4.46056 c -19.89167,6.70416 -39.88075,9.69106 -63.89771,9.54799 -11.11047,-0.0661 -24.51732,-0.90332 -29.79303,-1.86031 z M 966.66667,194 V 77.333333 h 18 18.00003 v 21.333334 c 0,11.733333 0.2329,21.333333 0.5176,21.333333 0.2847,0 5.2347,-4.85555 11,-10.79012 24.3462,-25.061051 46.1971,-35.876547 72.4824,-35.876547 43.121,0 67.5,26.720337 70.2532,76.999997 l 0.8214,15 h -20.204 -20.204 l -0.011,-7 c -0.015,-10.11028 -2.4121,-23.39452 -5.4731,-30.3253 -9.6313,-21.80747 -35.2205,-27.34803 -59.8483,-12.95834 -7.9578,4.64965 -35.7414,31.33879 -42.4909,40.81703 l -4.1771,5.86672 v 74.46661 74.46662 H 986 966.66667 Z M 1209.3333,158.66667 V 6.6666667 h 26.4147 26.4146 l 41.8272,89.0000003 c 23.0049,48.950003 48.6715,104.600003 57.037,123.666663 8.3655,19.06667 15.7567,35.23667 16.4249,35.93334 0.7314,0.76254 1.215,-48.45588 1.215,-123.66667 V 6.6666667 H 1397.3333 1416 V 158.69428 310.72188 L 1389.2475,310.36095 1362.4949,310 1318.2113,215.33333 c -24.3561,-52.06666 -49.9675,-108.3078 -56.9142,-124.980309 -6.9467,-16.672505 -13.0804,-30.322505 -13.6304,-30.333333 -0.55,-0.01083 -1,56.380312 -1,125.313642 V 310.66667 H 1228 1209.3333 Z M 1497.256,159 1547.4892,7.3333333 l 28.1357,-0.3595018 28.1358,-0.359502 12.0472,36.3595025 c 28.0684,84.712828 86.8588,264.925608 86.8588,266.252248 0,0.97321 -7.0294,1.43728 -21.6667,1.43037 l -21.6667,-0.0107 -10.5761,-33.33579 -10.576,-33.33579 -63.9981,0.346 -63.9982,0.34599 -10.6654,33 -10.6655,33 h -20.9156 -20.9156 l 50.2332,-151.66667 z m 127.5563,43.33333 C 1615.7869,172.71804 1575.3453,45.765753 1574.6868,44.982381 1573.966,44.1249 1522.592,204.07183 1522.6476,207 c 0.013,0.55 23.3904,1 51.9553,1 h 51.9362 z"
       id="path22"
       inkscape:connector-curvature="0" />
  </g>
</svg>
