<?xml version="1.0" encoding="UTF-8" standalone="no"?>
<!-- Created with Inkscape (http://www.inkscape.org/) -->

<svg
   xmlns:dc="http://purl.org/dc/elements/1.1/"
   xmlns:cc="http://creativecommons.org/ns#"
   xmlns:rdf="http://www.w3.org/1999/02/22-rdf-syntax-ns#"
   xmlns:svg="http://www.w3.org/2000/svg"
   xmlns="http://www.w3.org/2000/svg"
   xmlns:sodipodi="http://sodipodi.sourceforge.net/DTD/sodipodi-0.dtd"
   xmlns:inkscape="http://www.inkscape.org/namespaces/inkscape"
   version="1.1"
   id="svg36"
   width="140"
   height="342"
   viewBox="0 0 140 342"
   sodipodi:docname="temperature_1.svg"
   inkscape:version="0.92.1 r15371">
  <metadata
     id="metadata42">
    <rdf:RDF>
      <cc:Work
         rdf:about="">
        <dc:format>image/svg+xml</dc:format>
        <dc:type
           rdf:resource="http://purl.org/dc/dcmitype/StillImage" />
        <dc:title></dc:title>
      </cc:Work>
    </rdf:RDF>
  </metadata>
  <defs
     id="defs40" />
  <sodipodi:namedview
     pagecolor="#ffffff"
     bordercolor="#666666"
     borderopacity="1"
     objecttolerance="10"
     gridtolerance="10"
     guidetolerance="10"
     inkscape:pageopacity="0"
     inkscape:pageshadow="2"
     inkscape:window-width="2560"
     inkscape:window-height="1377"
     id="namedview38"
     showgrid="false"
     inkscape:zoom="0.69005848"
     inkscape:cx="70"
     inkscape:cy="171"
     inkscape:window-x="2552"
     inkscape:window-y="-8"
     inkscape:window-maximized="1"
     inkscape:current-layer="svg36" />
  <g
     id="g46"
     transform="translate(-1e-7,-0.5508473)">
    <path
       style="fill:#ffffff"
       d="M 55.515828,339.40994 C 41.031898,336.16282 25.950412,326.88687 17.073494,315.76577 6.6570131,302.71589 1.8111212,288.77756 1.8352645,271.93576 1.8616353,253.54013 8.1688591,237.98531 21.036327,224.58226 l 7.875247,-8.20304 0.333646,-91.93961 C 29.618856,21.480341 29.266118,26.474574 36.875486,16.406622 45.279585,5.2871617 55.321007,0.62757328 71.050423,0.54819567 80.123715,0.50240781 80.981593,0.68814018 88.222035,4.2658844 100.72485,10.443943 108.8372,21.258957 111.03512,34.679232 c 0.55287,3.375822 0.95573,42.876573 0.95909,94.040828 l 0.006,88.22007 3.11383,2.27993 c 1.71261,1.25397 5.44305,5.07635 8.28985,8.49418 24.29857,29.17248 19.65113,75.63839 -9.78084,97.79067 -7.62109,5.7361 -17.770721,10.84933 -26.12284,13.16031 -7.934193,2.19534 -23.859613,2.56615 -31.984172,0.74472 z M 81.366146,322.51056 C 104.55026,317.59862 123,294.99366 123,271.5 c 0,-15.63992 -7.95816,-31.03746 -21.17692,-40.97335 L 95.5,225.7739 95,130.63695 C 94.619251,58.190382 94.205273,34.837537 93.264258,32.722402 91.148454,27.966673 83.09625,20.202174 78.433342,18.421393 c -9.47519,-3.618608 -22.433815,0.390246 -27.618769,8.544087 -1.561757,2.456014 -3.281427,6.056014 -3.821489,8 -0.610255,2.196651 -0.984041,39.006663 -0.987507,97.24847 L 46,225.9279 l -3.729563,2.5343 c -18.384511,12.4926 -27.085007,32.63544 -22.879771,52.96981 4.349288,21.03093 19.492652,36.62699 39.85983,41.0514 8.227794,1.78734 13.77552,1.79415 22.11565,0.0272 z M 64.403696,307.92401 C 56.063698,306.5112 50.171038,303.38751 44.055213,297.1373 39.359175,292.33808 37.94157,290.03829 36.04656,284.1448 30.240565,266.08813 36.836285,248.65194 52.717015,240.07544 L 57.5,237.49235 l 0.258255,-57.39533 0.258254,-57.39533 9.14537,0.64915 C 72.191833,123.70788 77.813118,124 79.653625,124 H 83 v 56.44136 56.44136 l 6.150126,3.27798 c 7.275247,3.87767 12.740214,10.27704 15.873174,18.58721 2.84964,7.55867 2.45488,20.26556 -0.85969,27.67243 -7.124215,15.92006 -22.769839,24.38181 -39.759914,21.50367 z"
       id="path60"
       inkscape:connector-curvature="0" />
    <path
       style="fill:#ffffff"
       d="M 58.32234,339.96795 C 32.772233,335.37537 9.558896,313.46807 3.5203561,288.24925 2.2171402,282.80662 1.8917737,278.19329 2.2155981,269.74925 2.9385303,250.89809 8.9915037,236.9308 22.475211,223 l 6.29139,-6.5 0.572001,-92 C 29.879812,37.452585 30.013525,32.190215 31.822493,26.745393 36.659099,12.187668 47.45386,3.48932 63.827851,0.9556829 80.338412,-1.5990862 95.634383,4.9453951 104.54898,18.378483 c 7.23365,10.900139 6.82844,4.901375 7.19814,106.562957 l 0.33254,91.44144 5.82548,5.68262 c 14.57119,14.21385 20.4184,28.29367 20.52965,49.4345 0.0743,14.11373 -1.14303,19.85701 -6.66857,31.46253 -3.28637,6.90251 -5.62537,10.05878 -12.68815,17.12156 -7.05115,7.05115 -10.22985,9.40862 -17.11855,12.6959 -4.652734,2.22029 -11.232619,4.7552 -14.621962,5.63314 -7.727863,2.00174 -22.211093,2.77784 -29.015218,1.55482 z m 23.501424,-17.48833 c 10.670603,-2.51558 16.998312,-6.13087 25.198416,-14.39694 8.05619,-8.12098 11.90742,-14.66389 14.44616,-24.54278 1.75895,-6.84454 1.9516,-17.00424 0.44637,-23.5399 -2.61668,-11.36152 -12.31216,-25.13184 -21.89355,-31.09504 L 95.5,226.09111 95,130.79556 94.5,35.5 92.020838,30.646066 C 87.254638,21.314359 78.598857,16.437298 68.274095,17.26607 60.012908,17.929199 53.7032,21.692435 49.526436,28.447549 L 46.5,33.342228 l -0.269395,96.237082 -0.269394,96.23709 -4.983103,3.19765 c -13.352828,8.56848 -22.916061,26.29954 -22.963327,42.57599 -0.01959,6.74615 3.267926,19.31688 6.713367,25.67042 1.524519,2.81128 5.599937,7.94333 9.056486,11.40456 12.719452,12.73666 30.690351,17.90455 48.03913,13.8146 z M 56.78892,305.6984 C 46.044656,301.56254 38.422277,293.02302 35.425048,281.76399 30.764649,264.2573 38.119018,247.2604 53.611043,239.73379 L 58,237.60147 v -57.44534 -57.44534 l 6.75,0.6375 c 3.7125,0.35062 9.3375,0.64069 12.5,0.6446 L 83,124 v 56.34118 56.34118 l 6.75,4.00998 c 11.15339,6.6259 17.25,17.44893 17.25,30.62314 0,15.22612 -9.244332,29.26254 -22.788068,34.60098 -7.359834,2.90098 -19.572573,2.80387 -27.423012,-0.21806 z"
       id="path58"
       inkscape:connector-curvature="0" />
    <path
       style="fill:#ffffff"
       d="M 61.5,340.28545 C 34.235233,336.51489 10.70444,315.71411 3.9856321,289.44382 0.31304478,275.08414 1.7192576,258.21826 7.7292386,244.54364 11.430895,236.12119 15.258072,230.55381 22.538956,223 L 28.804107,216.5 29.47734,125 C 29.913611,65.7057 30.527998,31.916113 31.222881,29 34.82402,13.88763 47.127485,3.324895 63.834023,1.0027773 80.572805,-1.3238222 95.567935,5.1092374 104.39135,18.402272 c 7.23227,10.895881 6.82676,5.007331 7.34044,106.592548 l 0.46265,91.49482 7.67819,8.00518 c 20.33544,21.20146 24.81693,52.53676 11.37062,79.50518 -5.23273,10.49496 -17.85612,23.0775 -28.25403,28.16261 -14.864035,7.26926 -28.440844,9.92736 -41.48922,8.12284 z m 19.700779,-17.40656 c 19.456931,-4.11634 37.199811,-21.89927 40.802131,-40.89423 1.27298,-6.71241 1.2373,-16.23003 -0.0823,-21.95685 -2.70495,-11.73885 -12.34475,-25.31662 -22.564185,-31.78192 L 95.038791,225.51436 94.769395,130.00718 94.5,34.5 92.308914,30.40532 C 87.519806,21.455479 78.144943,16.346372 68.171195,17.25076 58.266829,18.148857 51.949983,22.472604 48.08403,31 c -2.007163,4.427335 -2.040461,6.037399 -2.062068,99.70785 L 46,225.91569 l -4.504442,2.63978 c -5.786823,3.39131 -14.242946,12.7566 -17.693985,19.59639 -17.3745914,34.43555 7.349379,75.24688 45.899206,75.76483 3.410428,0.0458 8.585428,-0.42119 11.5,-1.0378 z M 59.286039,306.60556 C 49.785414,303.50942 42.224322,297.28035 38.061113,289.11979 35.436333,283.9748 33.613641,272.91001 34.356987,266.63362 35.660619,255.62649 43.484183,244.75979 53.75,239.69731 L 58,237.60147 v -57.43666 -57.43666 l 4.639571,0.63593 c 2.551764,0.34975 7.951764,0.63592 12,0.63592 L 82,124 l 0.01531,55.75 c 0.0084,30.6625 0.345922,56.2 0.75,56.75 0.404078,0.55 2.89995,2.08976 5.546383,3.42169 5.679145,2.85827 12.496967,10.10752 15.798547,16.79827 1.97236,3.99707 2.36127,6.33614 2.37424,14.28004 0.014,8.56934 -0.28843,10.1414 -3.08712,16.04737 -4.113997,8.68159 -8.024605,12.93965 -15.612145,16.99925 -5.594385,2.99318 -7.274443,3.3941 -15.285218,3.64751 -5.671105,0.17941 -10.558648,-0.22323 -13.213961,-1.08857 z"
       id="path56"
       inkscape:connector-curvature="0" />
    <path
       style="fill:#ffffff"
       d="M 58.5,339.56034 C 43.139801,336.54352 32.558585,330.82439 21.5,319.56192 0.7175918,298.39635 -3.825895,268.80814 9.4935825,241.37342 12.977312,234.19783 15.527352,230.62832 21.422499,224.67551 l 7.497989,-7.57134 0.789756,-93.85595 L 30.5,29.392265 34.277929,21.75015 C 41.279829,7.5864832 53.274963,0.70309552 70.947244,0.70752464 84.525445,0.71092768 96.289826,6.8686311 103.72871,17.865975 c 7.68932,11.367571 7.28142,5.83734 7.97528,108.127185 l 0.62062,91.49317 4.78727,4.30417 c 14.35701,12.90819 21.30197,29.3372 21.22481,50.2095 -0.0494,13.36513 -1.75508,21.03574 -7.0403,31.66104 -12.55433,25.239 -45.172822,41.3247 -72.79639,35.8993 z m 24.855655,-17.14453 c 8.991364,-2.31824 17.191975,-7.07455 24.088785,-13.97137 16.71654,-16.71653 20.3736,-40.81475 9.35331,-61.63356 -2.75353,-5.20177 -12.72028,-15.72526 -18.843229,-19.89581 l -2.3269,-1.58493 -0.363926,-93.91507 C 94.859951,27.224559 95.213673,32.562913 88.199258,24.798795 81.754336,17.665037 71.791912,15.200416 61.61602,18.222323 56.203857,19.829558 48.829558,27.203857 47.222323,32.61602 46.29687,35.732366 46,59.693078 46,131.271 v 94.53896 l -4.349843,2.54917 c -2.392414,1.40205 -6.787456,5.1821 -9.766761,8.4001 -30.5999142,33.05156 -7.267994,86.6014 37.972259,87.15135 4.045611,0.0492 10.120611,-0.62347 13.5,-1.49477 z M 59.286039,306.59613 C 45.574937,302.15853 37.229629,292.32536 34.900533,277.86299 32.308924,261.77058 39.714277,246.57929 53.25,240.22102 L 58,237.98975 v -56.93586 c 0,-31.31472 0.3375,-57.07609 0.75,-57.24749 0.4125,-0.17141 5.8125,-0.16989 12,0.003 L 82,124.12441 v 56.47315 56.47315 l 4.25,1.8404 c 6.782225,2.93694 13.293191,9.41449 16.96325,16.87619 2.98034,6.05941 3.28675,7.52498 3.28675,15.72069 0,8.2445 -0.29628,9.63994 -3.37342,15.88841 C 96.458069,300.9375 86.728618,307.28831 72,307.71397 c -5.12626,0.14815 -10.172566,-0.29567 -12.713961,-1.1182 z"
       id="path54"
       inkscape:connector-curvature="0" />
    <path
       style="fill:#ffffff"
       d="M 61,339.95713 C 32.109841,335.4896 9.4343175,314.21076 3.4996882,285.99852 -1.4198083,262.61204 6.8059743,237.55183 24.691845,221.43567 l 4.510636,-4.06434 0.458993,-90.93566 C 29.961528,66.989203 30.493304,33.7686 31.197158,30.5 33.750946,18.640554 42.040925,8.4124158 52.605616,4.0863439 60.628915,0.80093134 75.677741,0.01021861 83.221583,2.4776845 94.878691,6.2905313 106.03104,17.630696 109.4518,29.149642 c 1.1624,3.914237 1.55664,21.642874 2.14407,96.417888 l 0.71978,91.62178 7.1426,7.23592 c 8.21242,8.31973 14.30735,19.06404 17.06052,30.07477 2.11518,8.45926 2.3932,24.549 0.57022,33 -4.52344,20.96975 -20.12005,39.36684 -40.08899,47.28724 -11.850083,4.70017 -25.94656,6.72454 -36,5.16989 z m 26.639443,-18.8173 C 101.37033,316.35999 112.56584,305.88768 118.86093,291.93516 129.06941,269.30897 120.99608,242.39883 99.75,228.23431 L 96,225.73423 95.993106,209.11711 C 95.989314,199.9777 95.692869,157.175 95.334339,114 94.80769,50.579693 94.416823,34.862715 93.299611,32.182502 91.165885,27.063652 84.344984,20.297166 79.424391,18.417974 72.629555,15.823003 62.084923,16.858573 56.689317,20.650747 50.584839,24.941136 47.236354,30.395665 46.038772,38 45.396105,42.080772 45.012297,78.371377 45.007554,135.50589 L 45,226.51178 l -2.927788,1.29596 c -4.66293,2.06402 -15.659761,14.45982 -18.997862,21.4147 -4.147978,8.64224 -5.445038,15.62538 -4.787478,25.77492 1.489854,22.99613 16.445561,41.37397 38.713128,47.57138 2.475,0.68884 8.55,1.28664 13.5,1.32846 7.429457,0.0628 10.420372,-0.4184 17.139443,-2.75737 z M 59,306.18965 c -8.644,-2.86021 -14.948931,-7.86855 -19.207084,-15.2572 -6.339224,-10.99968 -7.061949,-24.79067 -1.863075,-35.5511 2.360758,-4.88621 11.590338,-13.7362 16.437502,-15.76148 L 58,238.10205 V 181.05103 124 h 12 12 v 56.49488 56.49487 l 4.75,2.22319 c 6.435065,3.01187 13.8058,10.59889 17.05092,17.55127 2.30816,4.94503 2.66683,6.97657 2.60157,14.73579 -0.0628,7.46708 -0.52133,9.98248 -2.69214,14.76827 -3.21881,7.09623 -11.929922,16.04964 -18.444234,18.95725 C 78.629333,308.1878 66.395793,308.63684 59,306.18965 Z"
       id="path52"
       inkscape:connector-curvature="0" />
    <path
       style="fill:#ffffff"
       d="M 64.5,340.3076 C 43.574911,338.22347 23.6879,326.04119 12.575572,308.5 5.0492128,296.61938 1.3449707,281.97333 2.3409476,268.03373 3.663967,249.51687 10.803048,234.55249 24.385871,221.8249 l 4.989245,-4.67511 0.368737,-91.32489 C 30.09174,39.663928 30.220064,34.131691 32.013277,27.98639 35.448393,16.214327 41.294506,9.5216155 52.764536,4.2300561 60.442899,0.68773672 75.081273,-0.12549999 83.153466,2.5417952 96.657098,7.0038008 106.89529,18.404339 109.95079,32.381428 c 0.49519,2.265215 1.22004,44.799528 1.61078,94.520702 l 0.71042,90.40212 7.12083,7.12082 c 16.59695,16.59696 22.83709,40.51516 16.97774,65.07493 -5.22094,21.8838 -21.69654,39.40961 -44.180578,46.99677 -8.552455,2.886 -20.485947,4.52835 -27.689982,3.81083 z m 23.185869,-19.18384 c 18.539381,-6.45353 32.362351,-23.44128 35.506941,-43.63628 1.3642,-8.76109 -0.61826,-19.78819 -5.2219,-29.04598 -3.27594,-6.58782 -11.55881,-15.81687 -18.051395,-20.11346 L 96,225.73423 95.992648,188.11711 C 95.988605,167.4277 95.726402,124.85 95.409976,93.5 94.772961,30.387615 94.912759,31.718707 88.17698,24.630793 83.013885,19.197781 77.853574,17.043924 70,17.043924 c -7.964247,0 -13.265026,2.21602 -17.883673,7.476368 -7.060957,8.041985 -6.586301,0.733743 -6.895277,106.166038 l -0.278949,95.18633 -3.273797,2.02332 c -6.413077,3.9635 -15.307807,14.40688 -19.29558,22.65511 -3.838888,7.94027 -3.843023,7.9625 -3.804066,20.44891 0.03469,11.11893 0.333187,13.2491 2.701683,19.28009 6.368253,16.21572 18.746739,27.38956 35.729659,32.25252 2.475,0.70871 8.55,1.32277 13.5,1.36459 7.440969,0.0629 10.418003,-0.41756 17.185869,-2.77344 z M 61.468722,306.93513 c -7.228115,-1.73262 -16.643231,-7.99176 -20.247383,-13.46038 -6.440107,-9.77165 -8.328717,-24.11703 -4.566805,-34.68824 2.304652,-6.47621 10.714785,-15.79975 16.855656,-18.6863 L 58,237.98975 V 180.99488 124 h 12 12 v 56.44136 56.44136 l 6.076013,3.23848 c 16.341697,8.71003 22.644917,27.0548 15.704617,45.70643 -2.51172,6.7501 -11.624261,16.29605 -18.411268,19.28694 -5.556294,2.44854 -17.488988,3.35748 -23.90064,1.82056 z"
       id="path50"
       inkscape:connector-curvature="0" />
    <path
       style="fill:#ffffff"
       d="M 66.5,340.25148 C 50.139532,339.23501 31.48669,330.76089 21.311348,319.72195 -4.3619667,291.86969 -4.2897591,252.02859 21.482779,225.13362 L 29.5,216.76723 29.786544,127.13362 C 29.949683,76.102324 30.484078,35.181211 31.027396,32.11583 33.260356,19.517538 42.164253,8.392008 53.525262,4.0044672 61.685396,0.85308146 75.797478,0.10770618 82.864049,2.4548442 96.370376,6.9409259 107.03835,18.77081 109.95059,32.491537 110.41853,34.696192 111.09802,77.225 111.46057,127 l 0.65919,90.5 4.82652,4.5 c 15.90087,14.82514 23.3566,35.17947 21.05555,57.48222 -2.48985,24.13278 -15.79746,43.11342 -37.50183,53.48885 -10.836552,5.18024 -23.648083,7.92357 -34,7.28041 z M 84,322.57872 c 11.289199,-3.51128 15.709589,-6.22738 24.5,-15.05401 9.64454,-9.68426 14.75718,-22.06614 14.87509,-36.02471 0.0819,-9.69175 -1.49556,-15.9406 -6.27354,-24.85228 -2.81825,-5.25646 -11.70139,-14.75414 -17.48245,-18.69189 L 96.013666,225.5 95.982885,173 C 95.965955,144.125 95.701949,101.6 95.396205,78.5 94.755185,30.068768 94.88031,30.833126 86.311149,23.001395 80.272546,17.482453 77.297935,16.557012 67.585109,17.175478 58.485386,17.754905 52.545945,21.581596 48.515319,29.461852 L 45.5,35.357088 l -0.274311,95.254922 -0.274312,95.25492 -3.278435,2.02619 c -6.42101,3.9684 -15.311197,14.40692 -19.297144,22.65797 l -3.839991,7.94891 0.03595,13 c 0.03233,11.6884 0.297443,13.62284 2.627726,19.17329 6.878923,16.38477 17.99085,26.43389 35.300515,31.92419 5.453338,1.7297 21.914589,1.71847 27.5,-0.0188 z M 62.077349,306.97623 c -7.455943,-1.56934 -17.115195,-7.81774 -20.848603,-13.48661 -6.340005,-9.62677 -8.165004,-22.92555 -4.670644,-34.03503 2.193207,-6.97278 9.63384,-15.50469 16.600123,-19.03477 L 58,237.96631 V 180.98315 124 h 12 12 v 56.48315 56.48316 l 5.087503,2.57803 c 22.133157,11.21572 26.234317,40.14628 8.253049,58.21893 -2.880162,2.8948 -7.397534,6.19547 -10.038605,7.33482 -5.511274,2.37754 -16.593872,3.27378 -23.224598,1.87814 z"
       id="path48"
       inkscape:connector-curvature="0" />
  </g>
</svg>
